<?xml version="1.0" standalone="no"?>
<!DOCTYPE svg PUBLIC "-//W3C//DTD SVG 20010904//EN"
 "http://www.w3.org/TR/2001/REC-SVG-20010904/DTD/svg10.dtd">
<svg version="1.0" xmlns="http://www.w3.org/2000/svg"
 width="1885.000000pt" height="1885.000000pt" viewBox="0 0 1885.000000 1885.000000"
 preserveAspectRatio="xMidYMid meet">

<g transform="translate(0.000000,1885.000000) scale(0.100000,-0.100000)"
fill="#000000" stroke="none">
<path d="M1057 12533 c-4 -3 -7 -1061 -7 -2349 l0 -2343 22 -12 c17 -9 661
-10 2702 -6 1475 4 5261 7 8414 7 l5732 0 0 2355 0 2355 -8428 0 c-4636 0
-8432 -3 -8435 -7z m3394 -1370 c5 -5 8 -432 7 -989 l-3 -979 -185 0 -185 0
-3 738 c-1 405 -6 737 -10 737 -4 0 -47 -154 -94 -342 -48 -189 -130 -516
-183 -728 -54 -212 -102 -391 -107 -397 -8 -10 -59 -13 -194 -13 -182 0 -185
0 -194 23 -6 12 -74 274 -151 582 -222 884 -227 901 -228 885 -1 -8 -3 -346
-4 -750 l-2 -735 -185 0 -185 0 -3 988 -2 987 302 -2 302 -3 8 -30 c4 -16 21
-79 37 -140 17 -60 46 -171 66 -245 20 -74 47 -178 61 -230 40 -150 63 -234
106 -395 22 -82 47 -178 56 -213 8 -34 19 -59 23 -55 4 5 18 53 32 108 28 112
98 382 128 493 10 39 28 105 38 145 39 144 104 394 123 472 11 44 26 85 32 90
16 13 585 10 597 -2z m1858 4 c8 -10 11 -62 9 -173 l-3 -159 -530 -5 -530 -5
0 -210 0 -210 493 -3 492 -2 0 -170 0 -170 -492 -2 -493 -3 -3 -254 c-2 -197
1 -256 10 -263 7 -4 254 -8 549 -8 480 0 538 -2 543 -16 12 -31 7 -299 -6
-312 -19 -19 -1481 -17 -1497 2 -8 10 -11 274 -11 984 1 823 3 973 15 979 7 4
335 9 728 11 609 2 716 1 726 -11z m1241 3 c265 -15 403 -70 544 -215 135
-138 221 -340 247 -580 14 -127 6 -407 -15 -501 -60 -278 -197 -480 -393 -581
-176 -92 -289 -105 -843 -101 l-395 3 -3 980 c-1 539 0 986 3 993 5 15 608 17
855 2z m1347 2 c7 -5 75 -293 154 -653 77 -354 143 -651 146 -659 6 -17 8 -10
52 155 16 61 41 153 55 205 23 89 32 123 71 268 9 31 30 109 46 172 17 63 40
147 50 185 10 39 33 124 50 190 17 66 38 126 47 133 12 9 75 12 238 12 165 0
224 -3 232 -12 5 -7 80 -294 166 -638 185 -736 176 -703 182 -698 4 4 48 200
73 323 60 293 226 1012 234 1017 7 4 97 8 200 8 148 0 189 -3 193 -13 3 -8
-20 -115 -50 -238 -30 -123 -70 -289 -90 -369 -34 -142 -61 -253 -172 -710
-30 -124 -73 -301 -95 -395 -23 -93 -46 -190 -53 -215 l-12 -45 -209 -3 c-115
-1 -213 2 -217 6 -5 5 -21 52 -34 103 -14 52 -32 119 -40 149 -8 30 -26 98
-40 150 -14 52 -34 129 -46 170 -11 41 -28 107 -38 145 -10 39 -29 106 -41
150 -23 84 -67 250 -119 450 -18 66 -33 122 -36 124 -5 5 -8 -6 -50 -164 -77
-295 -132 -504 -189 -715 -12 -47 -41 -155 -64 -240 -22 -85 -51 -193 -64
-240 l-23 -85 -219 0 -218 0 -12 40 c-7 22 -22 81 -33 130 -22 90 -81 341
-147 615 -39 162 -83 350 -115 485 -12 50 -41 171 -65 270 -24 99 -53 223 -65
275 -12 52 -25 107 -30 121 -5 17 -4 31 3 38 13 13 374 15 394 3z m3232 -1 c8
-5 35 -62 61 -128 68 -173 611 -1521 631 -1568 53 -123 106 -272 100 -278 -4
-4 -103 -6 -221 -5 l-213 3 -86 223 -86 222 -394 -2 -395 -3 -7 -25 c-4 -14
-23 -70 -44 -125 -20 -55 -50 -138 -67 -185 -16 -47 -35 -91 -40 -97 -13 -16
-413 -19 -423 -3 -7 12 753 1962 769 1972 16 11 398 9 415 -1z m2176 -15 c155
-30 226 -64 305 -146 97 -101 150 -240 150 -395 0 -270 -158 -467 -427 -532
-40 -10 -73 -20 -73 -23 0 -3 17 -14 37 -25 63 -34 214 -192 285 -300 149
-225 336 -530 329 -538 -4 -4 -113 -6 -242 -5 l-234 3 -142 210 c-311 462
-370 537 -448 574 -45 21 -214 46 -271 39 l-29 -3 -5 -410 -5 -410 -200 0
-200 0 -3 979 c-2 758 1 982 10 994 18 21 1045 12 1163 -12z m2293 -153 l2
-173 -530 0 -530 0 2 -212 3 -213 493 -3 492 -2 -2 -168 -3 -167 -492 -3 -493
-2 0 -260 0 -260 548 -2 547 -3 0 -170 0 -170 -752 -3 -753 -2 0 988 c0 544 3
992 7 995 3 4 333 6 732 5 l726 -3 3 -172z"/>
<path d="M7097 10823 c-4 -3 -7 -293 -7 -644 l0 -639 27 -6 c44 -11 453 5 510
20 123 33 185 84 234 192 51 111 63 195 63 434 0 172 -3 230 -18 290 -51 216
-165 325 -366 350 -93 11 -433 14 -443 3z"/>
<path d="M11895 10633 c-9 -27 -33 -91 -52 -143 -50 -137 -68 -185 -98 -270
-15 -41 -30 -84 -35 -95 -37 -92 -49 -128 -44 -136 7 -11 501 -12 508 -1 3 5
-29 98 -70 208 -41 109 -86 231 -100 269 -14 39 -29 77 -33 85 -4 8 -16 41
-26 73 -11 31 -22 57 -26 57 -3 0 -14 -21 -24 -47z"/>
<path d="M13544 10817 c-2 -7 -3 -116 -2 -242 l3 -230 205 -3 c249 -4 414 9
467 37 81 41 118 106 118 211 0 62 -4 83 -25 120 -34 60 -91 98 -165 110 -94
15 -594 13 -601 -3z"/>
<path d="M12790 6933 c0 -414 4 -744 9 -752 8 -12 374 -13 2556 -8 1401 3
2550 9 2554 12 3 4 7 339 9 746 l2 739 -2565 0 -2565 0 0 -737z m1495 413 c68
-14 163 -60 171 -81 6 -14 -94 -168 -105 -162 -82 45 -126 59 -170 53 -35 -4
-53 -14 -78 -40 -31 -33 -51 -81 -40 -92 3 -3 20 3 39 13 53 28 189 25 250 -6
57 -29 78 -51 109 -110 61 -118 14 -284 -100 -355 -57 -36 -129 -56 -199 -56
-162 0 -277 82 -329 234 -26 78 -23 261 6 346 51 147 143 235 276 259 71 13
102 12 170 -3z m-709 -24 c107 -54 144 -116 144 -238 0 -72 -3 -85 -32 -134
-33 -54 -104 -119 -205 -187 -29 -19 -53 -38 -53 -41 0 -4 62 -6 137 -5 75 1
145 -3 155 -8 16 -9 18 -21 16 -92 l-3 -82 -322 -3 -323 -2 0 87 1 88 147 110
c229 172 269 218 246 284 -23 65 -108 63 -183 -5 -27 -24 -52 -44 -56 -44 -13
0 -144 115 -144 127 -1 20 101 117 144 138 63 29 94 34 195 31 73 -2 105 -8
136 -24z m1759 -181 c58 -26 100 -65 127 -119 21 -44 23 -61 26 -269 l4 -223
-115 0 c-108 0 -115 1 -120 21 -5 20 -6 20 -33 2 -172 -112 -394 14 -352 200
22 101 109 157 245 157 45 0 93 -4 107 -10 31 -11 39 0 27 34 -12 30 -35 43
-87 49 -36 4 -66 1 -164 -18 l-36 -7 -22 74 c-12 41 -22 77 -22 81 0 12 106
40 180 46 104 8 188 2 235 -18z m790 -1 c20 -12 48 -41 63 -64 l27 -41 3 -252
3 -253 -115 0 -116 0 0 189 c0 175 -1 190 -21 215 -27 34 -82 36 -116 4 -22
-21 -23 -26 -23 -215 l0 -193 -114 0 c-95 0 -115 3 -120 16 -9 24 -7 587 2
602 6 9 37 12 118 10 l109 -3 3 -27 c4 -33 9 -34 38 -7 57 53 188 63 259 19z
m672 -5 c31 -15 72 -44 92 -64 94 -95 120 -245 63 -366 -121 -255 -503 -258
-634 -5 -18 34 -24 65 -26 131 -4 78 -1 92 24 143 31 64 106 139 162 163 64
27 95 32 180 29 65 -3 94 -10 139 -31z m675 5 c96 -36 96 -35 54 -118 -20 -40
-38 -72 -40 -72 -2 0 -34 11 -70 25 -70 26 -140 33 -152 14 -11 -18 17 -35 91
-58 166 -51 219 -103 218 -212 -1 -63 -12 -89 -56 -137 -63 -66 -197 -90 -324
-57 -65 17 -163 64 -170 81 -7 18 67 134 86 134 9 0 25 -6 36 -14 36 -24 123
-47 167 -44 35 2 43 7 43 23 0 16 -13 24 -60 38 -166 51 -222 89 -244 170 -11
38 -11 53 3 99 22 77 81 129 171 152 42 11 194 -4 247 -24z"/>
<path d="M14078 6860 c-28 -28 -30 -36 -25 -78 7 -60 32 -82 97 -82 57 0 95
26 105 71 15 65 -35 119 -110 119 -27 0 -44 -8 -67 -30z"/>
<path d="M15140 6784 c-43 -19 -52 -32 -45 -68 9 -53 59 -70 115 -41 34 17 50
43 50 78 0 19 -8 28 -31 36 -40 14 -46 14 -89 -5z"/>
<path d="M16580 6957 c-35 -18 -70 -74 -70 -114 0 -96 98 -161 183 -122 31 14
67 78 67 118 0 95 -98 160 -180 118z"/>
<path d="M1397 7119 c-20 -11 -49 -37 -63 -59 -100 -151 60 -338 221 -260 45
22 65 44 51 57 -3 4 -27 -4 -52 -16 -66 -34 -127 -25 -171 22 -41 46 -51 94
-29 152 31 79 127 110 200 66 38 -24 69 -14 46 14 -38 45 -140 58 -203 24z"/>
<path d="M1768 7126 c-93 -41 -135 -155 -89 -244 23 -46 46 -67 94 -87 49 -20
92 -19 142 5 100 48 131 168 69 263 -43 65 -145 95 -216 63z m158 -58 c102
-95 32 -261 -103 -245 -96 11 -150 113 -106 204 22 47 66 73 126 73 40 0 53
-5 83 -32z"/>
<path d="M2105 7128 c-3 -8 -4 -88 -3 -178 3 -148 5 -165 21 -168 15 -3 17 8
17 132 0 75 4 136 9 136 5 0 32 -36 61 -80 29 -44 56 -80 61 -80 4 0 32 36 61
80 29 44 56 80 60 80 5 0 8 -61 8 -136 0 -124 2 -135 18 -132 15 3 17 20 17
178 0 158 -2 175 -17 178 -13 2 -34 -22 -77 -88 -32 -50 -63 -92 -67 -92 -4 0
-35 39 -68 88 -59 85 -90 111 -101 82z"/>
<path d="M2534 7127 c-2 -7 -3 -87 -2 -177 3 -146 5 -165 20 -168 14 -3 17 7
20 60 l3 63 78 6 c70 4 81 8 109 36 54 55 40 144 -28 177 -44 20 -192 23 -200
3z m194 -43 c17 -12 22 -25 22 -60 0 -39 -4 -47 -32 -64 -25 -15 -47 -20 -88
-18 l-55 3 -3 78 -3 77 68 0 c46 0 76 -5 91 -16z"/>
<path d="M2874 7127 c-2 -7 -3 -87 -2 -177 3 -146 5 -165 20 -168 15 -3 18 7
20 70 l3 73 50 0 49 0 51 -72 c45 -66 70 -85 88 -67 3 4 -17 36 -44 73 -46 60
-49 67 -33 76 10 6 31 22 46 37 49 46 33 119 -32 153 -38 20 -208 21 -216 2z
m216 -47 c30 -30 26 -74 -10 -100 -24 -17 -41 -20 -97 -18 l-68 3 -3 68 -3 67
81 0 c67 0 83 -3 100 -20z"/>
<path d="M3234 7127 c-2 -7 -3 -87 -2 -177 l3 -165 125 0 c104 0 125 2 125 15
0 12 -20 16 -107 18 l-108 3 0 59 0 59 92 3 c79 3 93 6 96 21 3 15 -6 17 -92
17 l-96 0 0 60 0 60 99 0 c70 0 102 4 110 13 6 8 8 17 4 20 -3 4 -60 7 -125 7
-88 0 -120 -3 -124 -13z"/>
<path d="M3572 6963 l3 -178 125 0 c104 0 125 2 125 15 0 12 -20 16 -107 18
l-108 3 0 59 0 59 92 3 c79 3 93 6 96 21 3 15 -6 17 -92 17 l-96 0 0 60 0 60
99 0 c70 0 102 4 110 13 6 8 8 17 4 20 -3 4 -62 7 -130 7 l-123 0 2 -177z"/>
<path d="M3905 7128 c-3 -8 -4 -88 -3 -178 3 -139 5 -165 18 -165 12 0 16 24
20 139 6 163 -6 164 124 -7 48 -64 94 -121 101 -127 30 -25 35 1 35 176 0 167
-1 174 -20 174 -19 0 -20 -7 -20 -135 0 -104 -3 -133 -12 -129 -7 3 -56 62
-108 132 -92 121 -124 150 -135 120z"/>
<path d="M4310 7138 c0 -2 -1 -82 -1 -178 l-1 -175 69 -3 c81 -4 131 9 174 45
40 34 59 79 59 138 0 52 -10 77 -49 118 -39 42 -83 57 -172 57 -44 0 -79 -1
-79 -2z m198 -58 c81 -50 81 -190 0 -240 -26 -16 -47 -20 -98 -18 l-65 3 -3
124 c-1 69 0 131 2 138 9 22 125 17 164 -7z"/>
<path d="M4692 6963 l3 -178 123 -3 c117 -2 122 -2 122 18 0 19 -6 20 -105 20
l-105 0 0 60 0 59 93 3 c74 2 92 6 92 18 0 12 -18 16 -92 18 l-93 3 0 59 0 59
102 3 c89 3 103 5 106 21 3 15 -8 17 -122 17 l-126 0 2 -177z"/>
<path d="M5030 6959 c0 -166 1 -180 18 -177 14 3 18 17 22 73 l5 70 40 3 c22
1 45 -1 51 -5 5 -5 32 -38 58 -75 32 -46 54 -68 68 -68 26 0 20 15 -34 87 -40
53 -42 57 -23 67 65 37 87 89 61 143 -23 48 -65 63 -176 63 l-90 0 0 -181z
m223 109 c17 -23 18 -31 8 -56 -16 -39 -48 -52 -126 -52 l-65 0 0 70 0 71 81
-3 c76 -3 83 -5 102 -30z"/>
<path d="M5717 6968 c-42 -96 -77 -177 -77 -181 0 -23 36 3 54 38 l21 40 97 3
97 3 21 -46 c18 -40 37 -55 52 -40 3 3 -29 83 -72 178 -58 129 -82 173 -96
175 -16 2 -32 -26 -97 -170z m137 26 c20 -42 36 -78 36 -80 0 -2 -34 -4 -75
-4 -41 0 -75 3 -75 8 0 14 64 152 71 152 4 0 23 -34 43 -76z"/>
<path d="M6060 6960 l0 -180 71 0 c40 0 89 5 111 12 84 25 142 129 120 212
-26 94 -94 136 -220 136 l-82 0 0 -180z m222 103 c27 -27 32 -41 35 -90 4 -68
-8 -98 -56 -130 -27 -18 -48 -23 -97 -23 l-64 0 0 141 0 141 75 -4 c69 -3 78
-6 107 -35z"/>
<path d="M6454 7127 c-2 -7 -3 -87 -2 -177 l3 -165 125 0 c104 0 125 2 125 15
0 12 -20 16 -107 18 l-108 3 0 59 0 59 92 3 c79 3 93 6 96 21 3 15 -6 17 -92
17 l-96 0 0 60 0 60 99 0 c70 0 102 4 110 13 6 8 8 17 4 20 -3 4 -60 7 -125 7
-88 0 -120 -3 -124 -13z"/>
<path d="M6875 7126 c-16 -8 -42 -26 -57 -42 -85 -92 -54 -242 61 -290 45 -19
88 -17 138 5 l41 19 21 -24 c22 -25 41 -24 41 1 0 8 -8 18 -17 24 -17 9 -17
11 0 45 26 55 23 140 -8 192 -42 72 -143 104 -220 70z m149 -47 c14 -11 33
-34 41 -49 19 -36 19 -110 1 -135 -13 -18 -14 -18 -44 3 -54 39 -74 17 -26
-29 23 -22 24 -24 8 -36 -24 -17 -88 -16 -124 2 -61 32 -89 129 -55 195 25 49
62 70 120 70 38 0 60 -6 79 -21z"/>
<path d="M7210 7009 c0 -114 3 -136 20 -164 40 -64 147 -84 209 -37 47 34 56
66 56 202 0 111 -2 125 -17 128 -16 3 -18 -8 -18 -118 0 -134 -12 -174 -56
-190 -43 -17 -91 -12 -119 13 -33 28 -45 80 -44 187 1 114 1 110 -16 110 -13
0 -15 -21 -15 -131z"/>
<path d="M7691 7098 c-87 -190 -138 -308 -133 -313 15 -15 33 -1 51 40 l20 45
95 0 96 0 20 -40 c20 -39 44 -59 57 -47 5 6 -131 321 -150 345 -18 22 -37 12
-56 -30z m49 -38 c0 -5 14 -38 30 -72 17 -34 30 -65 30 -70 0 -4 -34 -8 -75
-8 -41 0 -75 2 -75 4 0 16 72 156 80 156 5 0 10 -4 10 -10z"/>
<path d="M7974 7127 c-2 -7 -3 -87 -2 -177 3 -146 5 -165 20 -168 15 -3 18 7
20 70 l3 73 46 3 46 3 54 -75 c32 -44 61 -76 72 -76 26 0 21 15 -28 83 -42 56
-44 63 -28 72 9 6 30 22 45 37 49 46 33 119 -32 153 -38 20 -208 21 -216 2z
m216 -47 c28 -28 25 -66 -7 -96 -24 -22 -34 -25 -97 -22 l-71 3 -3 68 -3 67
81 0 c67 0 83 -3 100 -20z"/>
<path d="M9034 7063 c-19 -42 -45 -100 -57 -127 -12 -28 -31 -71 -43 -96 -12
-25 -19 -49 -15 -53 14 -15 36 3 53 43 l17 40 95 0 96 0 20 -40 c20 -39 44
-59 57 -46 6 5 -131 318 -150 344 -20 26 -38 9 -73 -65z m66 -3 c0 -5 14 -38
30 -72 17 -34 30 -65 30 -70 0 -4 -34 -8 -75 -8 -41 0 -75 2 -75 4 0 16 72
156 80 156 5 0 10 -4 10 -10z"/>
<path d="M9334 7127 c-2 -7 -3 -87 -2 -177 3 -146 5 -165 20 -168 14 -3 17 7
20 60 l3 63 71 5 c102 7 146 42 146 115 0 80 -52 115 -170 115 -58 0 -84 -4
-88 -13z m196 -47 c26 -26 27 -83 0 -110 -25 -25 -54 -32 -111 -28 l-44 3 -3
78 -3 77 71 0 c57 0 74 -4 90 -20z"/>
<path d="M9664 7127 c-2 -7 -3 -87 -2 -177 l3 -165 125 0 c104 0 125 2 125 15
0 12 -20 16 -107 18 l-108 3 0 59 0 59 92 3 c78 3 93 6 96 20 3 15 -8 18 -90
20 l-93 3 -3 58 -3 57 98 0 c98 0 131 8 119 29 -11 17 -245 15 -252 -2z"/>
<path d="M10004 7127 c-2 -7 -3 -87 -2 -177 3 -148 5 -165 21 -168 15 -3 17 5
17 66 0 75 5 82 59 82 34 0 48 -12 96 -80 42 -59 53 -70 73 -70 21 0 14 19
-28 75 -45 61 -49 81 -20 90 30 9 60 54 60 89 0 38 -22 71 -60 91 -38 20 -208
21 -216 2z m216 -47 c25 -25 26 -64 0 -90 -25 -25 -53 -32 -121 -28 l-54 3 -3
68 -3 67 81 0 c67 0 83 -3 100 -20z"/>
<path d="M10362 6963 c3 -150 5 -178 18 -178 12 0 16 17 18 77 l3 77 92 3 c78
3 92 6 95 21 3 15 -6 17 -92 17 l-96 0 0 60 0 59 102 3 c89 3 103 5 106 21 3
15 -8 17 -122 17 l-126 0 2 -177z"/>
<path d="M10694 7127 c-2 -7 -3 -87 -2 -177 l3 -165 125 0 c104 0 125 2 125
15 0 12 -20 16 -107 18 l-108 3 0 59 0 59 92 3 c79 3 93 6 96 21 3 15 -6 17
-92 17 l-96 0 0 60 0 60 99 0 c70 0 102 4 110 13 6 8 8 17 4 20 -3 4 -60 7
-125 7 -88 0 -120 -3 -124 -13z"/>
<path d="M11040 6960 c0 -153 2 -180 15 -180 13 0 15 27 15 180 0 153 -2 180
-15 180 -13 0 -15 -27 -15 -180z"/>
<path d="M11268 7127 c-141 -63 -142 -273 0 -332 32 -14 40 -29 22 -40 -17
-10 -11 -35 8 -35 9 0 23 13 30 28 9 21 24 32 54 41 52 16 88 39 88 57 0 20
-24 17 -62 -6 -89 -54 -208 13 -208 118 0 48 28 101 64 123 41 25 112 25 151
-1 21 -14 32 -16 42 -8 10 8 11 14 1 25 -32 38 -134 54 -190 30z"/>
<path d="M11635 7126 c-67 -30 -107 -93 -107 -167 1 -54 12 -81 51 -122 84
-91 230 -66 290 50 20 39 13 122 -14 169 -42 72 -144 104 -220 70z m135 -39
c40 -20 70 -74 70 -126 0 -82 -56 -141 -135 -141 -133 0 -186 175 -79 259 31
24 104 28 144 8z"/>
<path d="M11997 6969 c-42 -94 -77 -175 -77 -181 0 -25 37 2 54 40 l19 42 98
0 98 0 20 -45 c18 -40 38 -55 53 -40 3 3 -29 83 -72 178 -57 125 -83 173 -97
175 -15 2 -32 -28 -96 -169z m132 35 c44 -94 44 -94 -39 -94 -38 0 -70 4 -70
9 0 16 63 151 71 151 4 0 21 -30 38 -66z"/>
<path d="M12350 7133 c-3 -48 1 -347 4 -351 3 -2 12 -2 21 2 13 5 16 18 14 64
-1 32 1 64 5 70 4 7 25 12 46 12 41 0 52 -10 117 -103 21 -30 40 -47 53 -47
11 0 20 3 20 6 0 3 -21 34 -46 69 l-45 64 40 39 c32 30 41 46 41 71 0 44 -28
88 -63 101 -34 11 -207 14 -207 3z m208 -49 c33 -23 30 -76 -5 -104 -22 -17
-38 -20 -96 -18 l-69 3 0 63 c1 34 1 64 1 67 1 3 34 5 74 5 49 0 80 -5 95 -16z"/>
<path d="M8528 7014 c-57 -30 -74 -112 -38 -172 21 -35 72 -62 115 -62 25 0
95 38 95 52 0 16 -23 18 -45 4 -34 -22 -87 -20 -119 5 -50 39 -36 49 74 49
l100 0 0 36 c0 28 -8 44 -34 70 -28 28 -41 34 -77 34 -24 -1 -56 -7 -71 -16z
m113 -35 c52 -37 35 -53 -51 -50 -41 1 -76 4 -78 6 -7 7 23 44 43 54 32 15 55
13 86 -10z"/>
<path d="M5383 6829 c-8 -8 -9 -19 -2 -37 7 -19 6 -29 -7 -43 -14 -16 -15 -19
-2 -19 26 0 50 36 46 71 -3 35 -17 46 -35 28z"/>
</g>
</svg>
