<?xml version="1.0" standalone="no"?>
<!DOCTYPE svg PUBLIC "-//W3C//DTD SVG 20010904//EN"
 "http://www.w3.org/TR/2001/REC-SVG-20010904/DTD/svg10.dtd">
<svg version="1.0" xmlns="http://www.w3.org/2000/svg"
 width="5334.000000pt" height="3000.000000pt" viewBox="0 0 5334.000000 3000.000000"
 preserveAspectRatio="xMidYMid meet">

<g transform="translate(0.000000,3000.000000) scale(0.100000,-0.100000)"
fill="#000000" stroke="none">
<path d="M23280 25420 l0 -250 -287 -2 -288 -3 -3 -412 -2 -413 30 0 30 0 0
388 0 387 252 -2 c139 -2 256 -3 261 -3 4 0 7 -117 7 -259 l0 -260 44 -35 c23
-20 46 -36 50 -36 3 0 6 239 6 530 l0 530 870 0 c573 0 870 3 870 10 0 6 -3
10 -7 10 -5 0 -25 16 -45 35 l-37 35 -875 0 -876 0 0 -250z"/>
<path d="M23628 25303 c-21 -8 -35 -19 -32 -24 3 -5 -1 -7 -8 -4 -16 6 -56
-51 -69 -100 -15 -52 -5 -89 39 -157 l37 -57 62 -1 62 0 10 53 c8 42 18 110
21 137 0 2 5 -1 12 -8 6 -6 13 -26 14 -44 2 -18 9 -54 14 -79 9 -38 15 -45 33
-44 20 1 23 9 30 71 12 115 21 122 38 28 18 -101 10 -94 104 -94 l84 0 26 45
c52 88 53 148 4 219 -47 69 -145 94 -221 57 -55 -26 -64 -26 -113 -1 -46 24
-96 25 -147 3z"/>
<path d="M25322 25113 l-22 -4 21 -30 c29 -41 56 -50 97 -31 37 18 40 27 12
35 -12 3 -24 -1 -31 -11 -8 -14 -9 -13 -4 5 5 18 1 25 -20 33 -14 5 -27 9 -28
9 -1 -1 -12 -4 -25 -6z"/>
<path d="M23757 25010 c-4 -8 -8 -26 -10 -40 -4 -23 -9 -25 -62 -30 l-58 -5
104 -102 c56 -56 103 -101 103 -100 1 2 49 52 109 113 l108 110 -66 2 -65 3 0
-31 c0 -35 -17 -41 -24 -7 -3 12 -9 40 -14 62 l-10 40 -1 -33 c-1 -24 -6 -35
-20 -39 -19 -5 -31 -40 -31 -89 0 -45 -19 -24 -30 34 -20 106 -27 128 -33 112z"/>
<path d="M25065 24963 c-14 -15 -25 -31 -25 -35 0 -12 18 -19 25 -8 3 6 24 19
46 31 22 11 37 24 34 29 -12 19 -55 10 -80 -17z"/>
<path d="M24368 24953 c7 -3 16 -2 19 1 4 3 -2 6 -13 5 -11 0 -14 -3 -6 -6z"/>
<path d="M24428 24953 c17 -2 47 -2 65 0 17 2 3 4 -33 4 -36 0 -50 -2 -32 -4z"/>
<path d="M24678 24953 c7 -3 16 -2 19 1 4 3 -2 6 -13 5 -11 0 -14 -3 -6 -6z"/>
<path d="M24723 24953 c9 -2 23 -2 30 0 6 3 -1 5 -18 5 -16 0 -22 -2 -12 -5z"/>
<path d="M25112 24868 c4 -30 43 -33 43 -3 0 13 -8 21 -23 23 -20 3 -23 0 -20
-20z"/>
<path d="M24865 24860 c-10 -11 -16 -22 -13 -25 9 -10 108 20 108 32 0 22 -74
16 -95 -7z"/>
<path d="M25540 24850 c0 -5 5 -10 10 -10 6 0 10 5 10 10 0 6 -4 10 -10 10 -5
0 -10 -4 -10 -10z"/>
<path d="M25565 24837 c-7 -25 7 -71 24 -82 7 -4 11 6 11 27 0 68 -23 104 -35
55z"/>
<path d="M24922 24778 c2 -15 10 -23 23 -23 30 0 27 39 -3 43 -20 3 -23 0 -20
-20z"/>
<path d="M28418 24433 c-29 -7 -20 -23 12 -23 20 0 30 5 30 15 0 15 -9 17 -42
8z"/>
<path d="M28515 24430 c-9 -14 -9 -14 39 -28 45 -13 57 -8 35 13 -20 20 -65
29 -74 15z"/>
<path d="M28737 24424 c-6 -6 1 -70 11 -94 3 -8 7 -26 8 -39 2 -13 7 -28 12
-33 11 -11 44 19 60 55 6 15 19 30 27 33 8 4 15 10 15 15 0 18 -35 9 -64 -16
-16 -14 -32 -25 -35 -25 -3 1 10 14 29 30 22 19 31 33 25 39 -15 15 -82 41
-88 35z"/>
<path d="M24800 24378 c0 -2 11 -30 25 -63 26 -63 32 -133 15 -166 -26 -48
-137 -66 -195 -31 -27 17 -55 59 -69 105 -5 16 -26 17 -254 17 l-250 0 5 -44
c4 -29 0 -55 -11 -77 -19 -39 -19 -39 -2 -39 17 0 36 45 40 91 l3 34 221 3
221 2 16 -33 c9 -19 32 -49 51 -68 33 -32 39 -34 103 -34 112 0 156 40 155
140 0 66 -37 165 -60 165 -8 0 -14 -1 -14 -2z"/>
<path d="M28410 24365 c0 -8 0 -18 -1 -22 0 -4 4 -9 10 -11 6 -2 11 8 11 22 0
14 -4 26 -10 26 -5 0 -10 -7 -10 -15z"/>
<path d="M28526 24373 c-12 -12 -6 -43 9 -43 8 0 15 9 15 19 0 21 -13 34 -24
24z"/>
<path d="M22072 23898 l3 -443 130 0 c98 0 130 3 129 13 -1 6 -2 206 -2 442
l-2 430 -130 0 -130 0 2 -442z"/>
<path d="M28955 24324 c5 -10 10 -40 13 -65 3 -38 -1 -51 -23 -77 -20 -24 -26
-40 -23 -63 3 -16 1 -32 -4 -35 -10 -7 -11 -104 0 -104 4 0 18 21 31 47 16 33
19 48 11 53 -8 5 -5 9 7 12 23 6 73 145 73 201 0 32 -3 37 -22 37 -13 0 -34 3
-47 7 -21 5 -23 4 -16 -13z"/>
<path d="M23823 24298 c-13 -24 -18 -56 -18 -115 0 -77 2 -83 30 -114 32 -33
81 -59 115 -59 35 0 22 19 -22 30 -93 26 -124 98 -91 212 22 74 15 99 -14 46z"/>
<path d="M22426 24201 c-3 -5 1 -12 10 -15 9 -3 184 -6 390 -6 326 0 374 2
374 15 0 13 -49 15 -384 15 -216 0 -387 -4 -390 -9z"/>
<path d="M22437 24103 c-4 -3 -7 -10 -7 -15 0 -4 173 -8 385 -8 336 0 385 2
385 15 0 13 -49 15 -378 15 -208 0 -382 -3 -385 -7z"/>
<path d="M22437 24003 c-4 -3 -7 -10 -7 -15 0 -4 173 -8 385 -8 336 0 385 2
385 15 0 13 -49 15 -378 15 -208 0 -382 -3 -385 -7z"/>
<path d="M26231 23920 c-2 -143 39 -392 78 -475 17 -35 41 -132 41 -163 0 -19
-19 -58 -54 -110 -58 -86 -58 -86 -106 -143 -16 -20 -30 -41 -30 -47 0 -6 -6
-13 -12 -15 -10 -4 -10 -6 0 -6 8 -1 60 41 116 92 56 50 119 105 139 121 39
30 47 60 28 108 -10 25 -14 40 -60 223 -17 66 -35 134 -40 150 -5 17 -19 68
-31 115 -12 47 -33 119 -45 160 l-23 75 -1 -85z"/>
<path d="M22432 23893 c2 -13 12 -18 36 -17 17 0 190 1 382 2 304 2 350 4 350
17 0 13 -50 15 -386 15 -362 0 -385 -1 -382 -17z"/>
<path d="M25104 23833 c12 -37 49 -180 61 -238 27 -120 55 -242 80 -350 14
-60 30 -135 35 -165 21 -109 42 -201 46 -197 5 4 -23 233 -36 302 -5 28 -16
88 -24 135 -16 94 -66 305 -86 360 -42 118 -64 170 -72 170 -5 0 -7 -8 -4 -17z"/>
<path d="M22427 23794 c-4 -4 -4 -11 -1 -15 3 -5 178 -9 390 -9 335 0 384 2
384 15 0 13 -49 15 -383 15 -211 0 -387 -3 -390 -6z"/>
<path d="M22432 23688 c4 -10 92 -14 386 -16 335 -2 382 0 382 13 0 13 -48 15
-386 15 -304 0 -385 -3 -382 -12z"/>
<path d="M22430 23585 c0 -13 49 -15 385 -15 336 0 385 2 385 15 0 13 -49 15
-385 15 -336 0 -385 -2 -385 -15z"/>
<path d="M28277 23578 c-117 -191 -122 -208 -120 -373 4 -314 6 -357 13 -344
18 35 30 155 28 279 -3 119 0 144 21 210 43 138 51 161 71 200 23 45 24 50 10
50 -5 0 -16 -10 -23 -22z"/>
<path d="M28983 23453 c-6 -16 -16 -48 -21 -73 -6 -25 -25 -97 -43 -160 -17
-63 -34 -130 -36 -147 -3 -18 -9 -33 -14 -33 -5 0 -33 -19 -62 -42 -29 -24
-64 -51 -77 -61 -87 -61 -110 -80 -107 -84 6 -5 295 135 302 147 3 5 7 26 10
47 2 21 6 54 10 73 3 19 9 64 15 100 5 36 16 105 25 154 17 97 16 122 -2 79z"/>
<path d="M22383 23452 c-23 -3 -23 -6 -23 -138 0 -142 7 -170 50 -209 20 -18
40 -20 234 -25 l211 -5 3 -50 c8 -163 38 -230 98 -223 25 3 31 10 47 56 22 67
37 242 37 440 l0 152 -23 0 -24 0 -6 -184 c-7 -197 -23 -371 -37 -396 -14 -25
-30 33 -30 109 0 80 -14 127 -43 143 -14 7 -87 10 -214 9 -196 -2 -223 2 -239
36 -4 10 -10 79 -13 153 -6 133 -6 135 -28 132z"/>
<path d="M28040 22787 c0 -4 14 -16 30 -26 30 -18 34 -18 133 0 56 11 107 21
112 23 6 2 -54 5 -133 7 -78 2 -142 1 -142 -4z"/>
<path d="M27290 22745 l0 -45 293 1 c160 0 299 3 308 7 15 6 14 11 -7 45 l-24
37 -285 0 -285 0 0 -45z"/>
<path d="M25477 22631 c-37 -26 -77 -57 -90 -68 -28 -25 -154 -113 -162 -113
-3 0 -29 -16 -58 -36 -48 -33 -57 -36 -109 -32 -68 5 -76 -6 -16 -23 40 -10
41 -12 23 -25 -13 -9 -44 -14 -90 -13 -38 0 -92 -5 -120 -11 -27 -6 -62 -14
-77 -17 -38 -7 -36 -25 2 -19 35 5 50 -12 26 -29 -15 -12 -15 -14 -1 -29 22
-22 48 -20 70 4 23 26 50 25 76 -1 20 -20 49 -20 49 1 0 18 34 10 98 -24 34
-19 62 -31 62 -27 0 4 -9 26 -20 48 -22 45 -19 68 10 76 10 2 23 14 29 26 10
18 9 21 -6 21 -15 0 -15 2 -3 14 8 8 57 44 109 81 81 58 105 70 177 87 70 16
87 25 105 49 24 35 20 46 -11 29 -47 -25 -29 0 24 34 31 20 56 38 56 41 0 3
-19 5 -42 4 -35 0 -56 -10 -111 -48z"/>
<path d="M28835 22564 c-133 -6 -487 -25 -595 -31 -128 -7 -127 -8 85 -37 241
-34 477 -36 574 -5 47 15 121 57 121 69 0 9 -40 10 -185 4z"/>
<path d="M22255 22373 c-58 -15 -104 -79 -147 -203 -53 -156 -73 -395 -44
-539 22 -108 46 -155 101 -193 25 -18 43 -34 40 -36 -2 -2 -112 -4 -243 -4
-238 1 -240 1 -246 -21 -3 -12 -6 -34 -6 -49 l0 -28 80 0 80 0 0 -260 0 -259
133 -3 132 -3 0 -745 0 -745 -127 -3 -128 -3 0 -119 0 -120 130 0 130 0 0
-164 c0 -90 -2 -171 -6 -179 -3 -8 -14 -12 -27 -10 -19 4 -23 0 -25 -29 -1
-18 -6 -71 -12 -118 -34 -300 -33 -292 -14 -337 20 -45 78 -83 128 -83 31 0
31 -4 10 -61 -24 -66 -22 -181 5 -253 41 -109 93 -168 196 -219 210 -105 463
-5 545 216 31 84 26 218 -12 299 -35 75 -109 153 -178 188 -67 33 -104 42
-182 42 -56 0 -61 2 -100 42 -59 60 -86 126 -94 229 l-7 87 -43 0 -44 0 0 175
0 175 464 0 c256 0 466 -3 468 -7 2 -5 2 -83 0 -175 -3 -163 -4 -167 -25 -170
-20 -3 -23 -12 -34 -108 -7 -58 -14 -130 -16 -160 -3 -30 -8 -83 -12 -118 -6
-50 -4 -70 9 -101 20 -44 77 -81 125 -81 17 0 31 -2 31 -4 0 -2 -6 -21 -14
-42 -99 -281 145 -578 431 -525 137 25 247 111 304 236 52 114 37 266 -38 377
-67 101 -190 167 -312 169 -68 1 -68 2 -119 51 -54 53 -77 104 -87 193 -14
120 -12 115 -56 115 l-39 0 2 173 3 172 1064 3 1063 2 -6 -24 c-3 -13 -10 -54
-16 -92 -5 -38 -26 -170 -45 -294 -20 -124 -39 -250 -42 -280 l-5 -56 58 1
c33 0 172 -4 311 -8 l252 -8 5 23 c3 13 17 100 31 193 14 94 34 229 45 300 11
72 24 155 28 185 l7 55 211 3 210 2 13 -102 c6 -57 23 -200 36 -318 33 -287
42 -361 48 -366 3 -3 152 0 331 6 179 6 330 9 336 5 6 -3 13 1 16 9 5 13 -58
569 -82 729 l-6 37 1406 0 1406 0 0 -175 0 -175 -25 0 c-14 0 -25 -1 -25 -3 0
-4 -20 -169 -25 -197 -1 -14 -9 -75 -16 -136 -11 -103 -11 -113 7 -150 23 -47
76 -84 120 -84 35 0 41 -9 24 -39 -5 -10 -14 -48 -20 -85 -33 -206 100 -396
309 -442 63 -14 85 -15 140 -5 154 29 270 127 316 269 26 81 18 209 -18 287
-35 76 -105 148 -182 188 -53 27 -70 31 -145 31 l-85 1 -55 61 c-60 66 -74
100 -85 204 -10 99 -12 103 -51 98 -45 -5 -46 -1 -42 193 l3 154 523 3 522 2
-2 -177 -3 -177 -49 3 c-33 2 -46 -1 -42 -8 4 -6 3 -11 -1 -11 -5 0 -10 -17
-11 -37 -2 -21 -12 -119 -22 -217 l-20 -179 23 -40 c26 -47 68 -75 115 -76 37
-1 37 0 17 -65 -30 -99 -13 -242 39 -325 13 -20 44 -55 69 -78 235 -217 603
-90 659 228 28 159 -62 334 -211 408 -68 34 -104 43 -181 43 -58 0 -60 1 -109
53 -27 29 -53 50 -57 46 -4 -3 -5 -1 -1 5 3 5 -3 43 -14 84 -10 40 -19 96 -19
123 0 39 -3 48 -15 43 -22 -8 -26 22 -23 194 l3 155 103 3 102 3 0 119 0 120
-105 0 -106 0 3 748 3 747 120 5 120 5 3 255 2 255 118 2 c64 1 120 2 125 2 4
1 7 22 7 49 l0 47 -496 2 -496 1 6 -26 c4 -15 11 -57 16 -93 5 -36 18 -117 29
-180 11 -63 25 -160 32 -216 l12 -103 129 0 128 0 0 -750 0 -750 -522 2 -523
3 0 680 0 680 -72 3 -73 3 0 -686 0 -685 -1420 0 c-781 0 -1420 1 -1420 3 0 1
-20 157 -44 347 l-42 345 -25 -2 c-13 0 -79 -6 -147 -12 -131 -12 -286 -13
-392 -2 -65 6 -65 6 -71 41 -11 61 -69 333 -84 390 -21 86 -18 38 20 -290 20
-168 47 -406 60 -530 14 -124 28 -240 31 -257 l6 -33 -180 0 c-166 0 -180 1
-176 18 4 17 44 281 89 580 14 90 25 177 24 195 0 30 -2 28 -15 -15 -20 -64
-77 -160 -121 -203 -58 -57 -172 -78 -388 -73 l-140 3 -6 -45 c-4 -25 -22
-138 -40 -252 l-32 -208 -1084 0 -1083 0 0 750 0 750 200 0 c110 0 200 2 200
5 0 3 -9 14 -19 24 -19 19 -19 21 39 136 61 119 115 269 124 342 2 22 8 57 12
78 l7 38 -354 -6 c-195 -3 -479 -3 -632 0 -259 6 -279 7 -288 25 -14 26 21 81
61 98 17 7 30 16 30 20 0 4 -67 20 -150 35 -173 33 -161 18 -135 165 25 140
30 304 12 380 -9 36 -18 85 -22 110 -11 84 -56 132 -135 143 -19 3 -44 3 -55
0z m323 -990 c-32 -2 -86 -2 -120 0 -35 2 -9 3 57 3 66 0 94 -1 63 -3z m-821
-9 c-3 -3 -12 -4 -19 -1 -8 3 -5 6 6 6 11 1 17 -2 13 -5z m301 -1 c-54 -2
-142 -2 -195 0 -54 1 -10 3 97 3 107 0 151 -2 98 -3z m9635 0 c-62 -2 -164 -2
-225 0 -62 1 -12 3 112 3 124 0 174 -2 113 -3z m-8483 -1343 l0 -750 -462 2
-463 3 -3 748 -2 747 465 0 465 0 0 -750z m8043 -1355 c-3 -9 -8 -14 -10 -11
-3 3 -2 9 2 15 9 16 15 13 8 -4z m-1266 -177 c-3 -8 -6 -5 -6 6 -1 11 2 17 5
13 3 -3 4 -12 1 -19z m-10 -90 c-3 -7 -5 -2 -5 12 0 14 2 19 5 13 2 -7 2 -19
0 -25z m1140 0 c-3 -8 -6 -5 -6 6 -1 11 2 17 5 13 3 -3 4 -12 1 -19z m-10
-150 c-3 -8 -6 -5 -6 6 -1 11 2 17 5 13 3 -3 4 -12 1 -19z m-579 -73 c-3 -3
-9 2 -12 12 -6 14 -5 15 5 6 7 -7 10 -15 7 -18z m-8373 -35 c8 -13 -5 -13 -25
0 -13 8 -13 10 2 10 9 0 20 -4 23 -10z m7930 -10 c3 -6 -1 -7 -9 -4 -18 7 -21
14 -7 14 6 0 13 -4 16 -10z m-6348 -42 c-3 -8 -6 -5 -6 6 -1 11 2 17 5 13 3
-3 4 -12 1 -19z m7743 1 c0 -6 -4 -7 -10 -4 -5 3 -10 11 -10 16 0 6 5 7 10 4
6 -3 10 -11 10 -16z m-7759 -35 c48 -24 66 -122 34 -184 -44 -86 -192 -77
-231 15 -19 47 -18 73 9 125 34 67 110 85 188 44z m6811 12 c9 0 15 -2 12 -5
-2 -2 5 -14 15 -25 11 -12 25 -41 32 -66 10 -38 9 -51 -4 -82 -30 -71 -126
-100 -193 -59 -117 71 -48 269 86 244 19 -3 43 -6 52 -7z m-7892 -9 c16 -8 31
-31 44 -66 18 -49 18 -58 5 -95 -38 -109 -193 -116 -243 -11 -26 55 1 156 46
175 34 13 119 12 148 -3z m9037 3 c22 -8 33 -22 46 -58 21 -58 21 -85 2 -122
-24 -46 -62 -70 -112 -70 -55 0 -98 22 -118 60 -31 59 -11 160 36 186 29 16
105 18 146 4z"/>
<path d="M22646 22018 c-8 -75 7 -185 29 -207 13 -14 17 -14 31 1 12 12 16 35
15 104 -2 127 -11 158 -43 162 -25 3 -26 1 -32 -60z"/>
<path d="M22798 22023 c32 -45 35 -84 13 -137 -12 -26 -16 -44 -11 -41 14 9
40 73 40 98 0 27 -39 107 -52 107 -5 0 -1 -12 10 -27z"/>
<path d="M21040 16643 c-385 -40 -654 -245 -803 -613 -48 -119 -100 -319 -124
-475 -25 -173 -26 -708 0 -880 99 -667 363 -1004 852 -1090 121 -22 380 -22
498 -1 382 69 624 299 763 722 62 190 90 361 104 633 31 588 -77 1072 -306
1372 -173 226 -454 342 -819 337 -71 -1 -146 -3 -165 -5z m285 -543 c223 -36
359 -222 410 -560 35 -230 30 -736 -10 -952 -50 -268 -177 -428 -375 -469 -89
-19 -283 -7 -355 22 -122 48 -240 204 -280 371 -61 252 -71 791 -19 1092 27
157 90 297 173 383 96 99 273 143 456 113z"/>
<path d="M18556 16393 c-662 -946 -920 -1316 -989 -1416 -45 -65 -121 -174
-169 -243 l-88 -125 0 -229 0 -230 725 0 725 0 0 -295 0 -295 295 0 295 0 0
295 0 295 180 0 180 0 0 245 c0 135 1 248 3 253 1 4 -80 8 -180 10 l-183 2 0
950 0 950 -338 0 -339 0 -117 -167z m244 -1103 l0 -630 -416 -2 c-229 -2 -418
0 -421 5 -2 4 112 182 255 395 142 213 331 494 418 624 87 131 160 238 162
238 1 0 2 -283 2 -630z"/>
<path d="M24056 16468 c-35 -51 -215 -309 -400 -573 -481 -691 -537 -771 -576
-825 -19 -27 -99 -141 -177 -254 l-143 -205 0 -230 0 -231 725 0 725 0 0 -295
0 -295 295 0 295 0 0 295 0 295 180 0 180 0 0 255 0 255 -180 0 -180 0 -2 948
-3 947 -337 3 -336 2 -66 -92z m194 -1178 l0 -630 -421 -2 c-231 -2 -422 -1
-424 1 -4 4 835 1260 843 1261 1 0 2 -283 2 -630z"/>
<path d="M26597 16463 c-4 -3 -7 -658 -7 -1455 l0 -1448 845 0 845 0 0 235 0
235 -550 0 -550 0 0 385 0 385 490 0 490 0 0 230 0 230 -490 0 -490 0 0 365 0
365 550 0 550 0 0 240 0 240 -838 0 c-461 0 -842 -3 -845 -7z"/>
<path d="M29965 15886 c-210 -33 -389 -137 -510 -298 -27 -37 -52 -67 -55 -67
-3 -1 -5 74 -5 166 l0 168 -292 3 -293 2 0 -1150 0 -1150 295 0 294 0 1 649
c0 613 1 653 20 726 25 100 55 158 106 211 89 91 223 132 441 137 l133 2 0
308 0 307 -27 -1 c-16 -1 -64 -7 -108 -13z"/>
<path d="M31665 15889 c-225 -32 -407 -140 -542 -323 l-43 -58 0 176 0 176
-290 0 -290 0 0 -1150 0 -1150 289 0 290 0 3 663 c4 654 4 663 27 737 68 225
210 312 533 324 l143 6 3 305 2 305 -32 -1 c-18 -1 -60 -5 -93 -10z"/>
<path d="M33005 15885 c-267 -49 -469 -155 -650 -339 -145 -147 -228 -297
-282 -505 -31 -120 -43 -388 -24 -534 33 -249 135 -467 300 -640 221 -231 506
-347 858 -347 600 0 1058 360 1180 930 27 127 25 411 -4 540 -103 460 -424
780 -890 885 -99 23 -386 29 -488 10z m358 -511 c131 -34 236 -108 340 -240
33 -42 76 -161 92 -252 38 -216 1 -448 -95 -592 -52 -78 -138 -156 -214 -194
-95 -48 -172 -66 -281 -66 -157 0 -274 43 -379 140 -102 94 -160 211 -186 373
-16 98 -8 329 15 412 57 210 216 372 413 419 78 20 221 19 295 0z"/>
<path d="M36005 15889 c-132 -19 -266 -71 -364 -143 -58 -43 -178 -168 -193
-202 -6 -13 -15 -24 -20 -24 -4 0 -8 77 -8 170 l0 170 -290 0 -290 0 0 -1150
0 -1150 290 0 290 0 0 608 c0 692 5 752 65 877 79 166 226 234 512 238 l133 2
0 308 0 307 -32 -1 c-18 -1 -60 -5 -93 -10z"/>
<path d="M28172 12197 c-28 -29 -29 -86 -3 -118 14 -18 29 -24 61 -24 52 0 80
30 80 84 0 73 -89 110 -138 58z"/>
<path d="M36984 12189 c-2 -3 -4 -90 -5 -192 -1 -103 -4 -187 -8 -187 -3 0
-21 15 -41 34 -19 19 -60 47 -90 63 -49 25 -65 28 -150 28 -84 0 -101 -4 -150
-28 -30 -16 -74 -46 -96 -69 -151 -146 -149 -431 3 -583 75 -76 125 -95 252
-96 97 -1 167 27 229 90 22 23 42 41 46 41 3 0 4 -26 3 -57 l-2 -58 63 -3 62
-3 -2 512 -3 511 -53 2 c-30 0 -56 -2 -58 -5z m-183 -374 c63 -22 113 -66 143
-127 36 -72 37 -199 2 -273 -28 -59 -76 -108 -128 -129 -46 -20 -157 -21 -201
-3 -115 49 -178 192 -148 338 33 158 182 245 332 194z"/>
<path d="M21090 11680 l0 -510 64 0 65 0 3 258 c3 245 4 259 26 299 12 24 41
55 64 70 37 25 51 28 123 28 72 0 86 -3 123 -28 23 -15 52 -46 64 -70 22 -40
23 -54 26 -299 l3 -258 60 0 59 0 0 265 c0 294 -6 329 -71 408 -97 117 -314
130 -432 26 l-47 -41 0 181 0 181 -65 0 -65 0 0 -510z"/>
<path d="M23810 11993 l0 -196 -42 43 c-65 66 -136 95 -233 95 -101 0 -159
-17 -221 -64 -105 -79 -148 -182 -142 -344 3 -86 7 -111 31 -162 53 -113 147
-185 266 -204 116 -19 211 10 293 89 l48 46 0 -63 0 -63 65 0 65 0 0 510 0
510 -65 0 -65 0 0 -197z m-144 -191 c164 -84 194 -341 54 -473 -45 -42 -96
-59 -176 -59 -148 1 -247 113 -248 280 0 123 49 208 149 257 41 20 61 23 115
20 39 -2 81 -12 106 -25z"/>
<path d="M16275 12140 c-168 -26 -316 -142 -376 -298 -27 -69 -37 -230 -20
-313 35 -168 184 -320 352 -358 65 -15 187 -13 254 4 227 59 374 281 350 525
-23 225 -167 390 -380 435 -76 16 -103 17 -180 5z m226 -137 c269 -119 276
-570 11 -700 -52 -25 -67 -28 -162 -28 -124 1 -175 20 -247 92 -139 138 -144
407 -12 558 94 107 269 141 410 78z"/>
<path d="M19590 11972 c0 -93 3 -251 7 -350 l6 -182 54 0 53 0 0 123 c0 68 3
226 7 350 l6 227 -66 0 -67 0 0 -168z"/>
<path d="M20287 12133 c-4 -3 -7 -28 -7 -55 l0 -48 135 0 135 0 0 -430 0 -430
60 0 60 0 0 430 0 429 133 3 132 3 0 50 0 50 -321 3 c-176 1 -323 -1 -327 -5z"/>
<path d="M25910 12025 l0 -95 -51 0 -50 0 3 -52 3 -53 47 -3 47 -3 3 -262 c3
-241 5 -265 24 -302 32 -63 85 -85 206 -85 l98 0 0 50 0 50 -52 0 c-69 0 -125
16 -138 40 -6 11 -10 118 -10 264 0 227 1 246 18 247 9 0 53 1 97 2 l80 2 3
53 3 52 -100 0 -101 0 0 95 0 95 -65 0 -65 0 0 -95z"/>
<path d="M31410 12025 l0 -95 -50 0 -50 0 0 -55 0 -55 49 0 50 0 3 -267 c3
-248 5 -271 23 -303 33 -57 91 -80 202 -80 l93 0 0 49 0 48 -77 6 c-122 9
-117 -2 -121 297 l-4 250 101 0 101 0 0 55 0 55 -100 0 -100 0 0 95 0 95 -60
0 -60 0 0 -95z"/>
<path d="M17232 11925 c-110 -31 -193 -101 -240 -203 -19 -42 -26 -77 -30
-148 -9 -174 54 -299 188 -373 64 -36 66 -36 185 -36 112 0 124 2 179 29 117
57 189 160 208 297 24 179 -57 340 -210 412 -78 36 -196 46 -280 22z m233
-127 c54 -34 100 -87 116 -135 21 -59 17 -189 -8 -243 -44 -97 -126 -149 -234
-150 -104 0 -178 41 -222 124 -19 35 -22 57 -22 151 0 94 3 116 22 150 28 53
74 96 126 117 62 27 169 20 222 -14z"/>
<path d="M18203 11926 c-62 -20 -128 -62 -157 -98 l-26 -33 0 68 0 67 -65 0
-65 0 0 -560 0 -560 65 0 65 0 0 245 0 245 40 -44 c61 -66 143 -99 246 -98 66
0 93 5 138 25 77 35 140 97 179 176 31 63 32 70 32 191 0 114 -2 130 -26 181
-59 126 -166 198 -305 205 -51 2 -94 -1 -121 -10z m152 -107 c58 -15 117 -67
149 -131 36 -72 37 -199 2 -273 -28 -59 -76 -108 -128 -129 -44 -19 -135 -21
-189 -5 -95 29 -159 125 -167 249 -6 103 21 172 89 234 68 61 147 79 244 55z"/>
<path d="M18985 11927 c-119 -40 -176 -104 -177 -199 0 -100 59 -167 182 -206
36 -11 98 -30 138 -43 94 -30 122 -55 122 -109 0 -132 -252 -150 -315 -22
l-20 41 -64 1 -63 0 6 -32 c16 -78 85 -152 173 -184 21 -7 79 -13 133 -13 79
-1 103 3 145 23 134 62 175 212 86 309 -36 40 -77 59 -216 102 -135 42 -185
78 -185 133 0 67 64 107 164 100 76 -5 127 -37 142 -90 9 -32 11 -33 72 -36
70 -3 71 -1 50 69 -15 53 -69 113 -124 139 -56 28 -189 37 -249 17z"/>
<path d="M22200 11926 c-185 -52 -294 -233 -262 -439 36 -229 210 -358 440
-326 127 18 227 97 272 214 l10 25 -68 0 -67 0 -23 -40 c-13 -23 -41 -50 -70
-67 -40 -24 -57 -28 -122 -27 -138 1 -213 64 -244 207 l-6 27 305 0 305 0 0
84 c0 92 -16 142 -69 220 -75 109 -253 163 -401 122z m191 -107 c79 -24 149
-110 149 -184 l0 -35 -236 0 -237 0 6 41 c18 138 169 222 318 178z"/>
<path d="M24379 11926 c-188 -51 -299 -230 -270 -439 19 -135 98 -250 204
-297 139 -61 335 -33 435 63 92 88 126 180 120 322 -4 104 -33 177 -96 247
-89 99 -252 142 -393 104z m232 -127 c52 -29 104 -95 120 -152 6 -23 9 -78 7
-123 -3 -65 -10 -90 -31 -126 -52 -90 -119 -128 -224 -128 -85 0 -137 23 -185
79 -45 52 -63 115 -62 211 1 123 60 218 156 254 62 23 163 16 219 -15z"/>
<path d="M25255 11926 c-65 -21 -118 -52 -156 -93 -160 -168 -136 -488 47
-613 65 -45 125 -62 224 -62 145 0 248 57 308 170 18 33 32 65 32 71 0 7 -24
11 -65 11 l-65 0 -19 -39 c-28 -53 -71 -87 -131 -101 -186 -45 -323 93 -307
308 12 158 91 243 232 250 57 3 80 0 111 -16 47 -24 89 -67 103 -104 10 -27
14 -28 76 -28 76 0 78 5 41 78 -27 53 -85 115 -131 139 -78 41 -219 55 -300
29z"/>
<path d="M26627 11930 c-197 -50 -317 -246 -278 -457 17 -93 41 -143 97 -203
165 -177 487 -142 608 65 65 110 73 279 20 391 -39 80 -118 156 -191 185 -65
24 -194 34 -256 19z m220 -128 c85 -44 133 -137 133 -257 0 -167 -102 -275
-260 -275 -118 0 -203 64 -236 176 -46 158 22 321 153 370 53 20 157 13 210
-14z"/>
<path d="M27560 11931 c-47 -15 -87 -40 -118 -75 -17 -20 -34 -36 -37 -36 -3
0 -5 25 -5 55 l0 55 -60 0 -60 0 0 -380 0 -380 59 0 59 0 4 248 c3 229 5 250
25 287 11 22 30 48 41 58 29 26 89 46 140 47 l42 0 0 65 0 65 -32 -1 c-18 0
-44 -4 -58 -8z"/>
<path d="M28643 11922 c-132 -47 -194 -159 -148 -270 33 -77 75 -104 240 -152
165 -48 194 -67 195 -127 1 -90 -138 -143 -246 -94 -45 20 -84 63 -84 92 0 17
-8 19 -65 19 -73 0 -79 -8 -52 -73 64 -153 315 -213 471 -113 70 44 96 92 96
173 0 110 -56 158 -253 217 -145 42 -187 71 -187 124 0 71 52 112 144 112 31
0 70 -7 89 -16 35 -17 77 -69 77 -98 0 -15 9 -17 63 -14 l62 3 -3 35 c-7 67
-59 133 -135 172 -60 30 -194 35 -264 10z"/>
<path d="M29869 11924 c-25 -7 -67 -32 -92 -55 l-47 -41 0 51 0 51 -65 0 -65
0 0 -380 0 -380 65 0 65 0 0 233 c0 267 9 320 65 372 87 82 260 69 322 -24 38
-56 43 -97 43 -344 l0 -238 63 3 62 3 3 195 c3 221 -9 364 -37 419 -62 120
-234 181 -382 135z"/>
<path d="M30718 11925 c-114 -31 -212 -122 -248 -231 -18 -53 -21 -82 -18
-167 3 -92 6 -109 36 -169 40 -82 112 -148 193 -179 50 -18 74 -21 161 -17 88
3 111 8 158 32 147 74 216 201 208 380 -5 106 -32 177 -94 245 -92 103 -253
146 -396 106z m227 -123 c93 -47 135 -125 135 -252 0 -68 -5 -95 -24 -135 -25
-56 -78 -107 -133 -130 -46 -20 -154 -19 -201 1 -164 68 -202 341 -66 481 11
11 70 44 104 57 31 12 145 -1 185 -22z"/>
<path d="M32468 11927 c-96 -28 -172 -95 -222 -197 -29 -61 -31 -71 -31 -180
0 -109 2 -119 33 -185 64 -136 175 -207 322 -207 101 0 173 28 234 89 l46 47
0 -62 0 -62 65 0 65 0 0 380 0 381 -62 -3 -63 -3 -3 -62 -3 -62 -35 39 c-54
60 -130 93 -223 97 -43 1 -96 -3 -123 -10z m206 -111 c70 -21 114 -60 147
-130 52 -110 36 -249 -38 -336 -50 -58 -101 -80 -187 -80 -165 0 -266 121
-254 305 12 186 159 293 332 241z"/>
<path d="M33457 11922 c-27 -10 -67 -36 -92 -61 l-45 -44 0 57 0 57 -62 -3
-63 -3 0 -375 0 -375 62 -3 62 -3 3 248 c3 236 4 250 26 295 29 58 99 98 174
98 l48 0 0 65 0 65 -32 0 c-18 -1 -55 -9 -81 -18z"/>
<path d="M33938 11925 c-104 -28 -189 -101 -237 -204 -24 -51 -26 -67 -26
-176 0 -116 1 -123 33 -188 135 -274 553 -267 690 13 38 78 44 230 13 323 -25
75 -101 166 -165 199 -92 47 -211 60 -308 33z m218 -119 c60 -28 120 -94 136
-150 7 -23 12 -70 12 -106 -1 -113 -36 -186 -117 -241 -44 -30 -59 -34 -126
-37 -86 -4 -125 7 -180 54 -55 46 -81 114 -81 214 0 107 11 146 56 198 76 90
196 117 300 68z"/>
<path d="M35762 11925 c-49 -15 -118 -59 -126 -81 -11 -29 -22 -12 -22 34 l1
47 -62 3 -63 3 0 -381 0 -380 65 0 64 0 3 264 3 264 30 44 c45 64 102 90 191
86 88 -4 141 -36 176 -107 22 -44 23 -59 26 -298 l4 -253 59 0 60 0 -3 278 -3
277 -28 57 c-63 128 -225 190 -375 143z"/>
<path d="M28165 11550 l0 -380 63 0 62 0 0 380 0 380 -62 0 -63 0 0 -380z"/>
<path d="M34594 11915 c-3 -8 -4 -128 -2 -267 4 -290 12 -326 90 -405 110
-112 328 -113 436 -3 l32 34 0 -52 0 -52 65 0 65 0 0 380 0 380 -65 0 -65 0 0
-237 c0 -247 -5 -288 -43 -344 -46 -69 -182 -102 -270 -65 -43 17 -93 76 -106
123 -6 22 -11 142 -11 281 l0 242 -60 0 c-44 0 -62 -4 -66 -15z"/>
<path d="M19607 11310 c-63 -49 -31 -150 47 -150 51 0 86 33 86 81 0 76 -75
115 -133 69z"/>
<path d="M37299 11301 c-36 -36 -37 -70 -3 -110 34 -41 84 -43 119 -5 50 54
15 144 -55 144 -21 0 -41 -9 -61 -29z"/>
<path d="M25423 9840 c-58 -13 -93 -60 -93 -125 0 -35 -4 -39 -47 -37 -16 1
-23 -5 -23 -18 0 -16 7 -20 35 -20 l35 0 0 -211 c0 -195 1 -210 18 -207 15 3
17 22 20 211 l2 207 55 0 c48 0 55 2 55 20 0 18 -7 20 -55 20 l-55 0 0 40 c0
51 34 90 80 90 23 0 30 4 30 20 0 21 -6 22 -57 10z"/>
<path d="M36971 9840 c-53 -13 -83 -50 -89 -109 -4 -50 -5 -51 -38 -51 -27 0
-34 -4 -34 -20 0 -16 7 -20 35 -20 l35 0 0 -211 c0 -195 1 -210 18 -207 15 3
17 21 17 211 l0 207 58 0 c51 0 57 2 57 20 0 12 -6 20 -12 19 -7 -1 -32 -1
-55 0 l-43 1 0 40 c0 51 34 90 80 90 23 0 30 4 30 20 0 21 -6 22 -59 10z"/>
<path d="M17284 9826 c-10 -26 4 -48 28 -44 17 2 23 10 23 28 0 18 -6 26 -23
28 -13 2 -25 -3 -28 -12z"/>
<path d="M18370 9708 l-1 -133 -20 28 c-12 15 -43 39 -70 52 -106 54 -238 14
-291 -88 -32 -62 -31 -177 3 -237 38 -69 88 -103 159 -108 92 -7 126 4 175 53
l44 43 3 -46 c2 -35 7 -48 21 -50 16 -3 17 17 17 307 0 304 0 311 -20 311 -19
0 -20 -7 -20 -132z m-117 -72 c78 -28 117 -91 117 -186 0 -74 -24 -127 -77
-167 -32 -25 -45 -28 -108 -28 -83 0 -111 14 -152 76 -36 55 -39 162 -6 225
43 80 134 112 226 80z"/>
<path d="M18782 9533 c3 -284 4 -308 21 -311 15 -3 17 5 17 54 l0 57 23 -34
c35 -52 91 -79 163 -79 74 0 118 17 162 63 112 116 61 346 -86 387 -90 25
-175 1 -230 -66 l-32 -39 0 138 c0 131 -1 137 -20 137 -20 0 -20 -5 -18 -307z
m291 103 c77 -28 117 -91 117 -183 -1 -112 -61 -188 -159 -200 -161 -19 -262
141 -186 294 45 90 131 123 228 89z"/>
<path d="M23390 9529 c0 -290 1 -310 18 -307 16 3 17 27 20 311 2 302 2 307
-18 307 -20 0 -20 -6 -20 -311z"/>
<path d="M23950 9703 l0 -138 -21 32 c-41 65 -157 99 -240 72 -96 -32 -143
-104 -143 -219 -1 -83 19 -133 71 -182 38 -36 73 -48 145 -48 72 0 118 20 158
69 l30 36 0 -53 c0 -45 3 -52 20 -52 20 0 20 7 20 310 0 303 0 310 -20 310
-19 0 -20 -7 -20 -137z m-127 -64 c76 -21 127 -98 127 -191 -1 -127 -87 -208
-211 -196 -88 9 -146 73 -156 172 -16 154 97 255 240 215z"/>
<path d="M25574 9826 c-10 -26 4 -48 28 -44 17 2 23 10 23 28 0 18 -6 26 -23
28 -13 2 -25 -3 -28 -12z"/>
<path d="M26660 9703 l0 -138 -22 31 c-66 93 -220 112 -308 37 -89 -74 -104
-232 -31 -335 74 -107 266 -106 338 1 l23 34 0 -57 c0 -49 2 -56 20 -56 20 0
20 7 20 310 0 303 0 310 -20 310 -19 0 -20 -7 -20 -137z m-98 -77 c118 -56
133 -258 25 -340 -71 -54 -195 -42 -251 25 -62 73 -60 211 2 280 52 58 145 72
224 35z"/>
<path d="M27360 9529 c0 -290 1 -310 18 -307 15 3 18 21 22 163 4 137 8 165
25 195 52 89 196 93 259 7 19 -26 21 -45 24 -198 3 -152 5 -170 20 -167 15 3
17 22 20 138 3 168 -8 226 -51 267 -47 44 -69 53 -135 53 -47 0 -67 -5 -98
-26 -21 -15 -44 -34 -51 -43 -10 -13 -12 7 -13 107 0 115 -1 122 -20 122 -20
0 -20 -7 -20 -311z"/>
<path d="M33760 9530 c0 -269 2 -310 15 -310 13 0 15 41 15 310 0 269 -2 310
-15 310 -13 0 -15 -41 -15 -310z"/>
<path d="M35010 9530 c0 -269 2 -310 15 -310 12 0 15 18 15 100 0 55 3 100 7
100 4 0 50 -46 102 -101 74 -78 101 -100 118 -98 18 3 7 19 -83 112 -57 60
-104 112 -104 117 0 5 45 55 100 113 55 58 100 108 100 111 0 3 -9 6 -19 6
-12 0 -57 -40 -112 -100 -52 -55 -97 -100 -101 -100 -4 0 -8 81 -8 180 0 153
-2 180 -15 180 -13 0 -15 -41 -15 -310z"/>
<path d="M35364 9826 c-10 -26 4 -48 28 -44 17 2 23 10 23 28 0 18 -6 26 -23
28 -13 2 -25 -3 -28 -12z"/>
<path d="M15140 9801 c0 -5 9 -37 19 -72 11 -35 35 -125 55 -199 75 -288 81
-305 102 -308 18 -3 29 25 101 260 45 145 84 256 87 248 3 -8 39 -125 80 -260
63 -210 76 -245 94 -248 13 -2 22 4 26 15 3 10 37 135 76 278 39 143 74 268
76 278 4 12 0 17 -14 17 -15 0 -23 -15 -41 -77 -21 -77 -76 -288 -102 -390 -7
-29 -15 -53 -19 -53 -3 0 -25 66 -49 148 -101 347 -111 373 -133 370 -18 -3
-31 -38 -95 -253 -41 -137 -78 -253 -82 -257 -4 -4 -38 109 -75 252 -59 222
-72 260 -87 260 -11 0 -19 -4 -19 -9z"/>
<path d="M24647 9803 c-2 -5 -12 -41 -22 -81 -17 -70 -15 -96 4 -76 10 10 61
140 61 155 0 11 -37 12 -43 2z"/>
<path d="M32560 9768 c-6 -24 -15 -56 -20 -72 -13 -39 -12 -56 3 -56 10 0 67
138 67 163 0 4 -9 7 -20 7 -14 0 -22 -11 -30 -42z"/>
<path d="M16730 9735 c0 -57 -6 -62 -57 -56 -7 1 -13 -7 -13 -19 0 -16 6 -20
35 -20 l35 0 0 -177 c0 -154 3 -181 18 -199 25 -32 55 -44 106 -44 39 0 46 3
46 20 0 17 -7 20 -46 20 -86 0 -84 -4 -84 200 l0 180 65 0 c58 0 65 2 65 20 0
18 -7 20 -65 20 l-65 0 0 55 c0 48 -2 55 -20 55 -18 0 -20 -7 -20 -55z"/>
<path d="M19880 9736 c0 -54 0 -55 -32 -58 -21 -2 -33 -8 -33 -18 0 -10 12
-16 33 -18 l32 -3 0 -163 c0 -96 5 -176 11 -196 14 -38 57 -60 119 -60 33 0
40 3 40 20 0 17 -7 20 -49 20 -77 0 -81 10 -81 212 l0 168 65 0 c58 0 65 2 65
20 0 18 -7 20 -65 20 l-65 0 0 55 c0 48 -2 55 -20 55 -18 0 -20 -7 -20 -54z"/>
<path d="M24810 9735 l0 -55 -35 0 c-28 0 -35 -4 -35 -20 0 -16 7 -20 35 -20
l35 0 0 -176 c0 -101 4 -183 10 -195 16 -28 63 -49 115 -49 39 0 46 3 43 18
-2 13 -16 18 -55 22 -29 3 -58 11 -65 18 -9 9 -14 63 -16 187 l-4 174 68 3
c56 2 69 6 72 21 3 15 -5 17 -67 17 l-71 0 0 55 c0 42 -3 55 -15 55 -12 0 -15
-13 -15 -55z"/>
<path d="M27090 9736 l0 -56 -35 0 c-28 0 -35 -4 -35 -20 0 -16 7 -20 35 -20
l35 0 0 -170 c0 -192 7 -220 61 -239 18 -6 49 -11 70 -11 32 0 39 3 39 20 0
17 -7 20 -48 20 -79 0 -82 7 -82 208 l0 172 65 0 c57 0 65 2 65 19 0 16 -7 19
-37 19 -97 0 -92 -3 -95 54 -2 41 -7 54 -20 56 -15 3 -18 -5 -18 -52z"/>
<path d="M16065 9666 c-78 -29 -135 -121 -135 -219 0 -49 27 -128 54 -159 40
-45 98 -68 168 -68 102 1 166 41 198 124 8 22 7 26 -9 26 -11 0 -24 -12 -31
-31 -29 -70 -136 -108 -222 -80 -42 14 -92 65 -107 110 -23 70 -32 66 184 63
l195 -3 0 48 c0 66 -34 130 -88 167 -51 36 -142 45 -207 22z m146 -27 c63 -21
109 -80 109 -139 l0 -30 -175 0 c-194 0 -189 -2 -160 67 21 50 42 72 90 94 46
21 88 24 136 8z"/>
<path d="M17000 9450 c0 -215 1 -231 18 -228 15 3 18 21 22 169 4 134 8 170
22 192 21 32 51 49 98 57 22 3 36 12 38 23 8 39 -99 10 -136 -37 l-21 -27 -3
38 c-2 27 -8 39 -20 41 -17 3 -18 -13 -18 -228z"/>
<path d="M17290 9451 c0 -225 1 -231 20 -231 20 0 20 5 18 227 -3 208 -5 228
-20 231 -17 3 -18 -13 -18 -227z"/>
<path d="M17587 9670 c-44 -13 -95 -57 -119 -103 -30 -58 -31 -175 -1 -232 41
-78 105 -115 198 -115 91 0 151 33 186 102 23 46 23 48 0 48 -11 0 -23 -12
-31 -31 -27 -65 -130 -106 -214 -85 -37 9 -87 56 -107 101 -36 78 -44 75 177
75 l196 0 -4 65 c-3 53 -9 71 -34 102 -56 71 -156 100 -247 73z m179 -52 c32
-22 56 -65 68 -120 l6 -28 -181 0 -181 0 7 33 c16 70 49 110 112 133 51 19
127 11 169 -18z"/>
<path d="M19340 9518 c0 -137 3 -169 19 -203 32 -70 80 -97 168 -96 61 0 100
18 137 61 l26 32 0 -47 c0 -39 3 -46 18 -43 16 3 17 22 17 228 0 201 -2 225
-17 228 -14 3 -17 -14 -20 -155 -3 -136 -6 -163 -24 -197 -29 -56 -74 -78
-151 -74 -53 3 -66 8 -88 32 -42 46 -48 72 -51 231 -2 179 -1 165 -19 165 -13
0 -15 -25 -15 -162z"/>
<path d="M20340 9665 c0 -15 105 -354 129 -418 7 -18 17 -27 27 -25 18 3 24
19 104 245 29 84 55 151 57 149 2 -2 24 -61 49 -132 76 -218 95 -264 110 -264
7 0 17 8 22 18 14 27 132 408 132 426 0 9 -6 16 -14 16 -16 0 -22 -18 -86
-240 -23 -80 -46 -149 -50 -153 -4 -4 -38 81 -76 189 -60 173 -83 219 -99 202
-3 -3 -37 -93 -76 -201 -40 -109 -75 -195 -78 -191 -3 3 -31 92 -62 197 -41
138 -61 193 -73 195 -9 2 -16 -3 -16 -13z"/>
<path d="M21165 9661 c-49 -22 -99 -77 -115 -127 -19 -58 -8 -174 20 -215 52
-75 98 -99 190 -99 89 0 150 32 184 98 21 41 20 52 -4 52 -11 0 -20 -5 -20
-12 0 -26 -47 -79 -83 -93 -115 -46 -242 17 -254 128 l-5 42 193 0 194 0 3 40
c2 30 -5 56 -25 95 -23 44 -39 59 -82 82 -64 33 -136 37 -196 9z m175 -33 c49
-25 90 -84 90 -130 l0 -27 -171 -3 c-191 -3 -190 -4 -170 62 30 102 150 148
251 98z"/>
<path d="M21937 9670 c-47 -14 -98 -60 -120 -109 -27 -60 -29 -171 -3 -221 46
-89 108 -124 211 -118 86 4 143 36 175 98 25 48 25 50 0 50 -13 0 -25 -12 -34
-34 -8 -20 -32 -46 -55 -62 -36 -23 -48 -26 -105 -22 -50 3 -71 10 -100 31
-55 43 -71 80 -71 168 1 67 4 82 28 119 38 56 101 85 170 76 65 -7 122 -45
138 -91 9 -23 19 -35 32 -35 22 0 17 25 -16 79 -38 64 -160 98 -250 71z"/>
<path d="M22432 9655 c-60 -31 -95 -72 -111 -130 -33 -122 13 -237 118 -290
26 -13 53 -16 110 -13 69 3 81 6 119 37 62 48 86 100 86 186 1 139 -76 225
-208 233 -51 3 -70 -1 -114 -23z m184 -29 c62 -29 93 -75 101 -148 14 -136
-63 -228 -190 -228 -106 0 -176 82 -177 204 0 93 47 159 135 187 39 13 81 8
131 -15z"/>
<path d="M22870 9516 c0 -92 5 -177 11 -193 26 -68 87 -105 171 -104 64 1 106
18 136 56 27 34 32 32 32 -15 0 -29 4 -40 15 -40 13 0 15 32 15 230 0 198 -2
230 -15 230 -12 0 -15 -20 -15 -117 0 -65 -4 -145 -10 -178 -8 -51 -15 -66
-49 -97 -37 -35 -45 -38 -98 -38 -69 0 -113 23 -140 72 -14 27 -18 65 -21 196
-3 130 -7 162 -18 162 -11 0 -14 -30 -14 -164z"/>
<path d="M24130 9450 c0 -190 2 -230 14 -230 11 0 15 31 18 158 4 168 10 193
62 241 36 34 126 40 176 13 64 -35 74 -66 78 -249 4 -130 7 -163 18 -163 11 0
14 32 14 168 0 154 -2 170 -23 206 -30 54 -67 78 -126 84 -78 7 -117 -4 -162
-49 l-39 -39 0 45 c0 33 -4 45 -15 45 -13 0 -15 -32 -15 -230z"/>
<path d="M25580 9450 c0 -223 1 -230 20 -230 19 0 20 7 20 230 0 223 -1 230
-20 230 -19 0 -20 -7 -20 -230z"/>
<path d="M25760 9450 c0 -190 2 -230 14 -230 11 0 15 31 18 158 3 143 5 161
27 198 55 98 209 99 266 3 17 -29 20 -56 23 -196 3 -132 6 -163 18 -163 11 0
14 30 14 165 0 145 -2 171 -20 205 -26 51 -72 82 -131 88 -76 7 -116 -5 -160
-49 l-39 -39 0 45 c0 33 -4 45 -15 45 -13 0 -15 -32 -15 -230z"/>
<path d="M27974 9655 c-79 -39 -114 -101 -114 -204 0 -150 75 -231 213 -231
75 0 121 17 158 57 50 53 62 93 29 93 -11 0 -20 -5 -20 -12 0 -6 -10 -27 -22
-45 -44 -63 -148 -81 -228 -40 -53 27 -80 61 -90 116 l-7 41 196 2 196 3 -2
52 c-4 84 -40 138 -118 174 -57 27 -130 24 -191 -6z m182 -24 c46 -21 82 -71
91 -126 l6 -35 -181 0 -180 0 7 33 c10 40 35 90 55 106 24 20 87 40 126 40 19
0 53 -8 76 -18z"/>
<path d="M28635 9658 c-3 -13 -4 -162 -3 -333 3 -286 4 -310 21 -313 16 -3 17
10 17 159 0 157 1 162 17 139 47 -69 104 -94 198 -88 84 5 137 40 171 111 28
62 32 158 8 215 -61 147 -261 178 -362 56 l-32 -39 0 58 c0 44 -3 57 -15 57
-8 0 -17 -10 -20 -22z m280 -19 c47 -13 92 -52 111 -96 17 -38 18 -140 3 -180
-37 -99 -167 -144 -261 -91 -112 63 -127 246 -27 332 52 44 103 54 174 35z"/>
<path d="M29317 9670 c-45 -14 -95 -58 -119 -103 -28 -55 -30 -175 -4 -227 43
-82 104 -120 196 -120 72 0 126 24 164 72 l26 33 0 -52 c0 -46 3 -53 20 -53
19 0 20 7 20 230 0 223 -1 230 -20 230 -18 0 -20 -7 -20 -57 l0 -58 -19 28
c-34 52 -83 79 -153 83 -35 2 -76 -1 -91 -6z m183 -54 c53 -35 80 -90 80 -163
-1 -95 -37 -156 -113 -188 -73 -30 -170 -8 -215 50 -61 78 -49 235 23 295 55
46 161 49 225 6z"/>
<path d="M29877 9670 c-88 -27 -141 -111 -141 -225 1 -140 82 -225 214 -225
72 0 126 24 164 72 l26 33 0 -83 c0 -57 -5 -95 -16 -118 -56 -117 -237 -121
-309 -7 -11 18 -28 32 -37 33 -27 0 -3 -53 42 -94 112 -101 312 -55 349 79 7
24 11 139 11 293 0 236 -1 253 -17 250 -14 -2 -19 -15 -21 -50 l-3 -47 -39 39
c-54 54 -142 74 -223 50z m183 -54 c52 -34 80 -90 80 -159 0 -98 -31 -154
-105 -188 -80 -37 -186 -10 -232 59 -47 71 -39 200 17 262 58 64 164 76 240
26z"/>
<path d="M30435 9668 c-91 -33 -138 -108 -137 -224 0 -142 80 -224 220 -224
70 0 117 17 153 57 50 53 62 93 29 93 -11 0 -20 -7 -20 -15 0 -25 -59 -83 -97
-96 -19 -6 -59 -9 -88 -7 -84 7 -141 60 -160 146 l-7 32 196 0 196 0 1 23 c5
104 -36 175 -123 211 -42 18 -118 20 -163 4z m165 -41 c47 -25 81 -76 84 -127
l1 -31 -175 0 -175 0 3 33 c10 114 153 183 262 125z"/>
<path d="M31020 9676 c0 -3 43 -107 95 -231 l95 -225 -40 -98 c-22 -53 -40
-100 -40 -104 0 -5 8 -8 18 -8 13 0 36 48 96 203 44 111 101 256 128 322 52
131 56 148 32 143 -15 -3 -50 -85 -136 -315 -17 -46 -34 -83 -38 -83 -4 0 -36
71 -71 157 -83 202 -100 237 -121 241 -10 2 -18 1 -18 -2z"/>
<path d="M31626 9665 c-91 -32 -141 -118 -134 -233 7 -134 86 -211 216 -212
82 0 147 32 187 92 37 56 47 164 21 232 -42 109 -172 163 -290 121z m152 -31
c56 -23 91 -62 108 -122 40 -136 -43 -261 -174 -262 -113 0 -185 79 -183 203
1 94 41 155 118 182 50 19 86 18 131 -1z"/>
<path d="M32044 9665 c-3 -8 -4 -83 -2 -167 4 -169 15 -210 69 -249 67 -48
188 -40 244 16 l34 34 3 -37 c2 -26 8 -38 21 -40 16 -3 17 13 17 227 0 224 -1
231 -20 231 -19 0 -20 -7 -20 -158 0 -134 -3 -162 -19 -192 -56 -106 -221
-109 -271 -5 -17 36 -20 62 -20 198 0 134 -2 157 -15 157 -9 0 -18 -7 -21 -15z"/>
<path d="M32710 9450 c0 -215 1 -231 18 -228 15 3 18 21 22 168 3 110 9 173
18 188 19 32 71 62 110 62 25 0 32 4 32 20 0 40 -99 15 -138 -34 l-21 -27 -3
38 c-2 27 -8 39 -20 41 -17 3 -18 -13 -18 -228z"/>
<path d="M33113 9664 c-85 -30 -132 -107 -133 -215 0 -88 33 -156 97 -198 42
-28 54 -31 123 -31 69 0 81 3 122 30 61 40 101 120 61 120 -11 0 -25 -17 -37
-41 -49 -107 -242 -103 -303 6 -13 22 -23 54 -23 70 l0 30 192 0 193 0 3 34
c4 37 -21 115 -47 145 -9 10 -38 29 -66 42 -57 27 -119 30 -182 8z m167 -36
c55 -29 78 -60 86 -118 l6 -45 -176 0 -176 0 0 23 c0 35 25 86 56 116 53 49
135 59 204 24z"/>
<path d="M34050 9667 c-52 -17 -114 -84 -129 -140 -25 -89 -3 -196 52 -248 48
-45 96 -61 172 -57 87 4 140 34 180 102 22 38 26 57 26 121 0 66 -4 84 -29
128 -51 91 -162 129 -272 94z m166 -42 c72 -36 99 -86 99 -181 -1 -61 -5 -78
-29 -114 -69 -104 -236 -106 -306 -4 -35 52 -41 163 -12 220 25 49 51 72 99
90 56 20 93 17 149 -11z"/>
<path d="M34586 9665 c-51 -18 -102 -69 -122 -122 -26 -68 -15 -182 22 -235
75 -107 244 -120 343 -27 59 56 80 190 42 274 -46 103 -171 151 -285 110z
m159 -34 c82 -37 111 -98 103 -210 -7 -103 -79 -171 -179 -171 -113 1 -182 77
-181 199 0 97 33 151 112 185 47 20 97 19 145 -3z"/>
<path d="M35370 9450 c0 -215 1 -231 18 -228 16 3 17 22 17 228 0 206 -1 225
-17 228 -17 3 -18 -13 -18 -228z"/>
<path d="M35545 9668 c-3 -7 -4 -110 -2 -228 2 -195 4 -215 20 -218 15 -3 17
9 17 135 0 150 10 205 43 242 63 69 197 66 244 -5 15 -23 19 -56 23 -198 4
-152 7 -171 23 -174 16 -3 17 10 17 160 0 150 -2 167 -22 208 -34 65 -66 84
-151 88 -67 4 -75 2 -114 -27 -24 -17 -43 -36 -43 -41 0 -6 -4 -10 -10 -10 -5
0 -10 18 -10 40 0 29 -4 40 -15 40 -9 0 -18 -6 -20 -12z"/>
<path d="M36177 9665 c-86 -30 -131 -104 -132 -215 0 -145 77 -230 210 -230
69 0 118 20 161 66 l34 35 0 -69 c0 -99 -8 -127 -46 -166 -71 -73 -190 -71
-258 5 -20 21 -36 44 -36 49 0 6 -9 10 -20 10 -24 0 -24 -3 -6 -39 72 -139
295 -147 373 -14 l28 48 3 268 c3 264 3 267 -17 267 -19 0 -21 -6 -21 -57 l0
-58 -21 33 c-45 69 -160 100 -252 67z m188 -46 c51 -35 76 -81 82 -147 12
-129 -64 -222 -181 -222 -81 0 -134 33 -167 105 -50 109 2 253 104 285 47 14
125 4 162 -21z"/>
<path d="M37235 9661 c-49 -22 -99 -77 -115 -127 -8 -22 -11 -66 -8 -111 6
-90 38 -143 107 -180 58 -30 154 -32 210 -4 50 26 97 81 110 128 16 58 13 143
-8 188 -48 106 -187 156 -296 106z m184 -35 c52 -27 84 -80 89 -147 6 -82 -4
-124 -41 -166 -38 -43 -81 -63 -136 -63 -134 0 -217 124 -177 263 33 115 158
168 265 113z"/>
<path d="M37670 9450 c0 -192 2 -230 14 -230 12 0 15 31 18 163 2 107 8 171
17 188 16 33 79 69 120 69 24 0 31 4 31 20 0 16 -7 20 -31 20 -38 0 -65 -13
-106 -53 l-33 -31 0 42 c0 31 -4 42 -15 42 -13 0 -15 -32 -15 -230z"/>
<path d="M37924 9266 c-10 -26 4 -48 28 -44 17 2 23 10 23 28 0 18 -6 26 -23
28 -13 2 -25 -3 -28 -12z"/>
<path d="M23504 8576 c-10 -26 4 -48 28 -44 17 2 23 10 23 28 0 18 -6 26 -23
28 -13 2 -25 -3 -28 -12z"/>
<path d="M23682 8283 c3 -284 4 -308 21 -311 16 -3 17 17 17 307 0 305 0 311
-20 311 -20 0 -20 -5 -18 -307z"/>
<path d="M23860 8279 c0 -290 1 -310 18 -307 16 3 17 27 20 311 2 302 2 307
-18 307 -20 0 -20 -6 -20 -311z"/>
<path d="M24660 8460 c0 -71 -3 -130 -6 -130 -3 0 -17 14 -32 31 -36 44 -96
69 -162 69 -123 0 -210 -93 -210 -225 0 -150 77 -234 213 -235 72 0 113 17
154 64 18 20 35 36 38 36 3 0 5 -22 5 -50 0 -38 4 -50 15 -50 13 0 15 41 15
310 0 269 -2 310 -15 310 -13 0 -15 -21 -15 -130z m-138 -70 c48 -14 97 -55
115 -98 18 -44 18 -140 0 -183 -43 -100 -158 -138 -258 -86 -62 33 -89 83 -89
169 0 104 27 153 105 189 46 21 75 23 127 9z"/>
<path d="M25600 8280 c0 -303 0 -310 20 -310 18 0 20 7 20 56 l0 57 23 -34
c35 -52 91 -79 163 -79 34 0 77 6 95 14 138 58 174 269 64 382 -86 89 -230 85
-313 -10 l-32 -37 0 136 c0 128 -1 135 -20 135 -20 0 -20 -7 -20 -310z m282
110 c86 -24 134 -103 126 -207 -5 -72 -22 -108 -70 -146 -78 -63 -208 -42
-263 41 -41 62 -45 143 -12 216 23 50 32 59 79 81 58 27 85 30 140 15z"/>
<path d="M30527 8583 c-4 -3 -7 -17 -7 -30 0 -18 5 -23 25 -23 14 0 28 7 31
15 11 27 -30 58 -49 38z"/>
<path d="M21270 8548 c0 -7 34 -140 77 -296 95 -352 93 -350 165 -117 28 88
62 201 77 252 15 51 29 95 32 98 3 3 27 -66 53 -153 100 -331 110 -357 130
-357 22 0 25 9 81 215 21 74 48 172 60 216 38 133 41 154 17 154 -14 0 -21 -9
-26 -32 -3 -18 -34 -138 -68 -266 -72 -273 -53 -281 -155 66 -92 314 -85 316
-189 -33 -68 -231 -80 -262 -88 -238 -5 15 -37 134 -71 263 -47 184 -64 236
-78 238 -9 2 -17 -2 -17 -10z"/>
<path d="M26700 8486 c0 -54 0 -55 -32 -58 -21 -2 -33 -8 -33 -18 0 -10 12
-16 33 -18 l32 -3 0 -157 c0 -189 8 -224 54 -246 33 -16 107 -22 119 -10 3 3
3 12 0 20 -3 9 -21 14 -54 14 -75 0 -79 11 -79 212 l0 168 65 0 c37 0 65 4 65
10 0 6 1 13 3 18 1 4 -20 8 -48 9 -27 1 -58 2 -67 2 -15 1 -18 11 -18 56 0 48
-2 55 -20 55 -18 0 -20 -7 -20 -54z"/>
<path d="M26990 8486 c0 -54 0 -55 -32 -58 -21 -2 -33 -8 -33 -18 0 -10 12
-16 33 -18 l32 -3 0 -165 c0 -197 8 -227 67 -243 21 -6 53 -11 71 -11 26 0 33
4 30 18 -2 13 -15 18 -50 20 -74 5 -78 16 -78 214 l0 168 66 0 c57 0 65 2 62
18 -4 19 -5 19 -78 21 l-50 1 0 55 c0 48 -2 55 -20 55 -18 0 -20 -7 -20 -54z"/>
<path d="M29730 8485 c0 -54 -1 -55 -28 -55 -34 0 -43 -7 -35 -26 3 -8 18 -14
33 -14 l28 0 4 -180 c3 -176 3 -180 28 -205 40 -40 158 -49 144 -10 -4 11 -20
15 -55 15 -75 0 -79 11 -79 212 l0 168 65 0 c59 0 65 2 65 21 0 19 -5 20 -62
18 l-63 -3 -3 57 c-3 49 -6 57 -22 57 -17 0 -20 -7 -20 -55z"/>
<path d="M30258 8483 l-3 -58 -32 3 c-28 3 -33 0 -33 -17 0 -17 6 -21 35 -21
l35 0 0 -176 c0 -106 4 -183 11 -196 14 -26 68 -48 119 -48 34 0 41 3 38 18
-2 13 -15 18 -55 20 -32 2 -56 9 -65 19 -9 12 -14 64 -16 189 l-4 173 69 3
c52 2 68 6 68 18 0 11 -16 16 -65 20 l-65 5 0 50 c0 39 -4 51 -17 53 -14 3
-17 -7 -20 -55z"/>
<path d="M22185 8411 c-84 -39 -124 -107 -125 -207 0 -150 77 -233 217 -234
73 0 108 11 146 48 29 27 57 72 57 92 0 5 -9 10 -20 10 -11 0 -20 -6 -20 -14
0 -23 -51 -78 -87 -92 -44 -19 -117 -18 -156 2 -61 31 -79 55 -97 131 l-8 33
197 2 196 3 -1 52 c-1 36 -10 66 -28 97 -49 84 -177 121 -271 77z m176 -34
c46 -24 89 -88 89 -134 l0 -23 -179 0 -179 0 7 33 c10 40 35 90 55 106 24 20
87 40 127 41 20 0 56 -10 80 -23z"/>
<path d="M22790 8415 c0 -18 118 -402 132 -427 7 -15 38 -26 38 -15 0 8 130
359 138 374 10 17 33 -38 108 -256 37 -108 54 -135 74 -115 11 11 140 416 140
439 0 18 -14 20 -27 3 -6 -7 -34 -94 -63 -193 -29 -99 -56 -184 -60 -188 -4
-4 -30 59 -59 140 -91 256 -87 248 -108 245 -10 -2 -19 -5 -19 -5 -1 -1 -32
-90 -69 -197 -37 -107 -69 -196 -70 -198 -3 -3 -21 56 -80 258 -20 69 -41 131
-47 137 -14 18 -28 16 -28 -2z"/>
<path d="M23510 8198 c0 -213 1 -229 18 -226 16 3 17 22 17 227 0 206 -1 224
-17 227 -17 2 -18 -14 -18 -228z"/>
<path d="M24946 8415 c-122 -43 -175 -204 -110 -334 39 -77 86 -105 183 -109
67 -2 82 1 126 25 69 39 105 109 105 202 0 80 -22 133 -73 178 -59 52 -150 67
-231 38z m137 -26 c121 -33 171 -185 101 -306 -61 -106 -234 -110 -304 -7 -18
28 -25 53 -28 104 -5 88 10 131 60 174 51 44 102 54 171 35z"/>
<path d="M26265 8412 c-79 -38 -125 -116 -125 -212 0 -94 53 -184 127 -216 44
-19 144 -18 194 2 43 18 99 82 99 116 0 30 -28 20 -46 -17 -24 -52 -67 -78
-136 -83 -102 -8 -180 49 -195 142 l-6 36 197 0 196 0 0 48 c0 64 -34 129 -87
166 -55 38 -157 47 -218 18z m175 -34 c54 -28 80 -62 87 -116 l6 -42 -154 -1
c-85 0 -162 -2 -171 -4 -24 -4 -31 10 -24 50 13 70 98 134 176 135 20 0 56
-10 80 -22z"/>
<path d="M27365 8411 c-102 -46 -149 -168 -114 -294 13 -47 72 -115 116 -134
50 -20 149 -17 200 8 69 33 123 129 73 129 -11 0 -20 -7 -20 -15 0 -27 -32
-66 -71 -86 -88 -44 -206 -11 -246 71 -13 24 -23 54 -23 67 l0 23 193 2 192 3
3 30 c5 40 -15 103 -43 141 -52 68 -175 94 -260 55z m171 -30 c51 -23 85 -70
91 -124 l5 -42 -173 3 c-96 2 -176 5 -178 7 -12 13 15 82 46 116 54 59 133 75
209 40z"/>
<path d="M27798 8422 c-17 -3 -18 -22 -18 -228 0 -217 1 -224 20 -224 19 0 20
7 20 148 0 81 5 164 11 184 11 42 67 88 106 88 32 0 53 10 53 26 0 37 -118 2
-148 -45 l-17 -25 -5 40 c-4 31 -9 39 -22 36z"/>
<path d="M28310 8200 c0 -215 1 -231 18 -228 15 3 18 21 22 168 5 150 7 168
27 196 62 86 203 85 260 -3 15 -23 19 -54 21 -196 3 -150 5 -168 20 -165 14 3
17 20 20 113 6 209 -11 271 -87 322 -66 45 -209 22 -243 -40 -12 -21 -13 -20
-18 18 -3 27 -10 41 -22 43 -17 3 -18 -13 -18 -228z"/>
<path d="M28918 8405 c-149 -79 -148 -337 2 -412 105 -54 247 -16 296 79 19
37 18 48 -6 48 -11 0 -20 -6 -20 -14 0 -23 -51 -78 -87 -92 -46 -20 -122 -17
-163 5 -41 21 -86 83 -94 129 l-5 32 194 0 c114 0 196 4 200 10 11 18 -8 111
-29 142 -11 17 -38 45 -58 61 -32 26 -47 30 -110 34 -63 3 -79 0 -120 -22z
m206 -35 c36 -22 76 -90 76 -128 0 -22 -2 -22 -180 -22 l-180 0 6 28 c23 100
98 157 192 148 29 -2 68 -14 86 -26z"/>
<path d="M29307 8424 c-3 -3 26 -55 65 -115 l70 -109 -71 -110 c-39 -61 -71
-113 -71 -115 0 -3 8 -5 18 -5 12 0 37 32 76 95 32 52 61 95 65 95 5 0 36 -43
70 -95 56 -84 91 -117 91 -84 0 6 -29 55 -65 110 -36 54 -65 103 -65 109 0 5
29 55 65 110 64 99 74 120 56 120 -16 0 -38 -27 -88 -110 -26 -44 -54 -80 -60
-80 -7 0 -13 4 -13 8 0 4 -23 44 -51 88 -58 89 -75 105 -92 88z"/>
<path d="M30537 8423 c-4 -3 -7 -107 -7 -230 0 -192 2 -223 15 -223 13 0 15
32 15 230 0 210 -3 243 -23 223z"/>
<path d="M30712 8422 c-9 -7 -12 -59 -10 -228 3 -196 5 -219 20 -222 15 -3 17
13 20 155 3 180 16 221 79 255 48 27 129 20 165 -13 47 -43 54 -75 54 -244 0
-144 1 -156 18 -153 15 3 18 21 22 168 5 152 7 167 28 198 61 85 192 83 249
-4 15 -23 18 -56 21 -196 4 -135 7 -168 18 -168 11 0 14 32 14 174 0 163 -1
175 -23 207 -12 18 -38 44 -57 57 -30 20 -45 23 -101 20 -54 -3 -73 -9 -103
-31 -20 -15 -39 -39 -42 -52 -8 -33 -15 -31 -43 14 -29 47 -76 71 -142 71 -59
0 -96 -17 -133 -60 l-26 -32 0 46 c0 46 -4 52 -28 38z"/>
<path d="M31639 8406 c-63 -34 -98 -83 -110 -155 -29 -162 62 -281 216 -281
97 0 176 51 200 128 11 38 -27 27 -50 -15 -27 -49 -64 -74 -118 -80 -69 -8
-114 4 -156 43 -33 29 -61 89 -61 128 0 3 88 6 196 6 l196 0 -4 64 c-3 50 -10
71 -31 99 -47 62 -81 80 -161 84 -60 3 -78 0 -117 -21z m163 -16 c47 -13 103
-76 112 -125 4 -22 3 -40 -2 -44 -6 -3 -87 -5 -182 -3 l-171 3 6 32 c22 108
126 168 237 137z"/>
<path d="M32034 8016 c-10 -26 4 -48 28 -44 17 2 23 10 23 28 0 18 -6 26 -23
28 -13 2 -25 -3 -28 -12z"/>
<path d="M18770 6645 c0 -211 2 -255 14 -255 11 0 15 28 18 133 3 105 7 139
21 160 38 58 110 81 170 52 56 -26 67 -62 67 -214 0 -110 2 -131 15 -131 21 0
22 254 1 305 -21 49 -68 75 -138 75 -52 0 -62 -3 -98 -36 l-40 -36 0 101 c0
83 -3 101 -15 101 -13 0 -15 -35 -15 -255z"/>
<path d="M19640 6645 c0 -220 2 -255 15 -255 13 0 15 35 15 255 0 220 -2 255
-15 255 -13 0 -15 -35 -15 -255z"/>
<path d="M22130 6645 c0 -212 2 -255 14 -255 11 0 15 28 18 138 4 159 12 181
85 208 41 16 50 16 86 3 26 -9 50 -26 64 -48 21 -31 23 -45 23 -167 0 -112 2
-134 15 -134 13 0 15 21 15 130 0 142 -9 178 -54 219 -19 18 -41 26 -81 29
-63 5 -107 -9 -135 -46 l-20 -25 0 102 c0 83 -3 101 -15 101 -13 0 -15 -35
-15 -255z"/>
<path d="M23190 6645 c0 -220 2 -255 15 -255 11 0 15 11 15 42 l0 42 39 -38
c80 -78 206 -66 275 27 32 43 35 152 6 212 -53 109 -204 129 -287 37 l-33 -35
0 111 c0 93 -3 112 -15 112 -13 0 -15 -35 -15 -255z m280 69 c43 -37 60 -75
60 -134 0 -92 -45 -151 -128 -166 -103 -20 -195 78 -178 189 13 88 69 137 158
137 46 0 62 -5 88 -26z"/>
<path d="M30133 6884 c-3 -8 -1 -20 5 -26 16 -16 42 -2 42 22 0 24 -38 28 -47
4z"/>
<path d="M31082 6878 c4 -30 43 -33 43 -3 0 13 -8 21 -23 23 -20 3 -23 0 -20
-20z"/>
<path d="M32230 6789 l0 -111 -27 33 c-33 38 -79 59 -131 59 -105 0 -182 -81
-182 -192 1 -117 71 -191 180 -191 63 0 98 16 137 62 l23 26 0 -42 c0 -32 4
-43 15 -43 13 0 15 35 15 255 0 220 -2 255 -15 255 -12 0 -15 -19 -15 -111z
m-79 -64 c73 -38 101 -152 59 -235 -52 -101 -206 -105 -265 -8 -44 75 -21 197
47 238 40 24 116 27 159 5z"/>
<path d="M34780 6645 c0 -220 2 -255 15 -255 13 0 15 22 15 134 0 122 2 136
23 167 47 71 160 74 209 6 21 -29 23 -45 26 -169 3 -116 6 -138 19 -138 24 0
15 275 -10 314 -54 82 -198 90 -251 14 -15 -21 -16 -16 -16 80 0 84 -3 102
-15 102 -13 0 -15 -35 -15 -255z"/>
<path d="M14682 6864 c3 -11 27 -98 53 -194 77 -287 75 -280 94 -280 12 0 22
16 34 58 74 246 112 362 118 362 3 0 14 -28 24 -62 9 -35 32 -110 50 -168 18
-58 38 -124 44 -147 8 -30 17 -43 30 -43 15 0 29 41 85 241 36 133 64 244 62
247 -19 18 -37 -29 -85 -217 -30 -116 -57 -211 -61 -211 -6 0 -26 64 -106 338
-40 134 -49 128 -108 -65 -26 -87 -55 -184 -63 -215 -9 -32 -19 -58 -23 -58
-4 0 -31 96 -61 212 -45 173 -59 214 -73 216 -14 3 -18 -1 -14 -14z"/>
<path d="M27860 6874 c0 -4 34 -71 75 -149 l75 -143 0 -96 c0 -79 3 -96 15
-96 12 0 15 18 15 100 0 85 3 105 23 142 69 125 127 236 127 242 0 3 -7 6 -15
6 -9 0 -39 -47 -74 -117 -33 -65 -64 -124 -69 -131 -7 -10 -29 24 -77 117 -37
73 -73 131 -81 131 -8 0 -14 -3 -14 -6z"/>
<path d="M29135 6815 c-23 -85 -14 -104 18 -35 39 85 42 100 19 100 -15 0 -23
-14 -37 -65z"/>
<path d="M17470 6815 c0 -43 -1 -45 -30 -45 -20 0 -30 -5 -30 -15 0 -10 10
-15 30 -15 l30 0 0 -150 c0 -147 1 -152 25 -175 18 -19 35 -25 70 -25 33 0 45
4 45 15 0 11 -11 15 -43 15 -24 0 -48 5 -55 12 -8 8 -12 58 -12 160 l0 148 56
0 c73 0 70 24 -4 28 l-52 3 0 45 c0 32 -4 44 -15 44 -11 0 -15 -12 -15 -45z"/>
<path d="M17900 6815 c0 -41 -2 -45 -24 -45 -13 0 -26 -7 -30 -15 -4 -11 2
-15 24 -15 l30 0 0 -134 c0 -190 13 -216 105 -216 61 0 56 23 -6 30 -62 7 -69
26 -69 188 l0 132 61 0 c81 0 77 24 -4 28 l-57 3 0 44 c0 33 -4 45 -15 45 -11
0 -15 -12 -15 -45z"/>
<path d="M21900 6815 c0 -41 -2 -45 -25 -45 -16 0 -25 -6 -25 -15 0 -9 9 -15
25 -15 l25 0 0 -134 c0 -73 5 -147 10 -163 13 -36 46 -53 101 -53 56 0 46 23
-12 30 -62 7 -69 26 -69 188 l0 132 61 0 c81 0 77 24 -4 28 l-57 3 0 44 c0 33
-4 45 -15 45 -11 0 -15 -12 -15 -45z"/>
<path d="M24450 6815 c0 -41 -2 -45 -25 -45 -16 0 -25 -6 -25 -15 0 -9 9 -15
25 -15 l25 0 0 -136 c0 -188 13 -214 113 -214 53 0 44 24 -10 28 -63 5 -68 16
-71 179 l-4 143 62 0 c45 0 61 3 58 13 -3 7 -27 13 -61 15 l-57 3 0 44 c0 33
-4 45 -15 45 -11 0 -15 -12 -15 -45z"/>
<path d="M31250 6816 c0 -41 -2 -45 -27 -48 -38 -4 -42 -28 -5 -28 l31 0 3
-156 c3 -150 4 -157 27 -175 29 -24 111 -27 111 -4 0 11 -12 15 -45 15 -34 0
-47 5 -55 19 -5 11 -10 83 -10 160 l0 141 55 0 c42 0 55 3 55 15 0 12 -13 15
-55 15 l-55 0 0 45 c0 33 -4 45 -15 45 -11 0 -15 -12 -15 -44z"/>
<path d="M32590 6816 c0 -41 -2 -45 -27 -48 -39 -4 -42 -28 -4 -28 l31 0 0
-150 c0 -147 1 -152 25 -175 18 -19 35 -25 70 -25 33 0 45 4 45 15 0 11 -11
15 -43 15 -24 0 -48 5 -55 12 -8 8 -12 58 -12 160 l0 148 55 0 c42 0 55 3 55
15 0 12 -13 15 -55 15 l-55 0 0 45 c0 33 -4 45 -15 45 -11 0 -15 -12 -15 -44z"/>
<path d="M15450 6759 c-36 -14 -69 -48 -92 -93 -16 -32 -19 -52 -15 -103 9
-116 75 -178 189 -177 43 1 66 7 92 24 50 35 85 100 53 100 -6 0 -18 -13 -25
-29 -17 -39 -53 -61 -111 -68 -69 -8 -126 23 -153 83 -33 75 -31 76 149 73
l158 -2 -1 45 c0 60 -35 115 -88 139 -44 20 -116 24 -156 8z m156 -38 c32 -20
64 -74 64 -110 0 -20 -4 -21 -150 -21 -163 0 -161 -1 -139 57 13 34 47 72 74
83 37 16 118 11 151 -9z"/>
<path d="M15950 6759 c0 -7 26 -93 57 -191 42 -132 61 -178 72 -178 12 0 33
47 75 166 l59 166 18 -46 c9 -26 37 -101 60 -167 31 -89 46 -119 57 -117 11 2
35 61 74 183 32 99 58 183 58 187 0 5 -7 8 -15 8 -8 0 -20 -19 -28 -47 -64
-222 -83 -283 -89 -283 -4 0 -10 10 -13 23 -22 74 -100 284 -109 294 -22 24
-34 0 -114 -239 -15 -43 -29 -78 -33 -78 -3 0 -18 42 -33 93 -58 193 -71 231
-83 235 -7 2 -13 -2 -13 -9z"/>
<path d="M16635 6753 c-46 -24 -66 -45 -86 -88 -53 -115 15 -259 133 -279 54
-10 116 10 155 49 l33 33 0 -39 c0 -28 4 -39 15 -39 13 0 15 28 15 191 0 148
-3 190 -12 187 -7 -3 -14 -21 -16 -42 l-3 -36 -35 32 c-19 18 -44 36 -57 40
-41 11 -112 7 -142 -9z m163 -33 c48 -30 72 -75 72 -140 0 -109 -67 -175 -169
-166 -43 4 -60 11 -86 36 -77 74 -67 219 18 270 43 27 121 26 165 0z"/>
<path d="M17020 6581 c0 -163 2 -191 15 -191 12 0 15 19 15 114 0 142 6 170
41 206 60 59 165 44 201 -30 14 -28 18 -61 18 -162 0 -107 2 -128 15 -128 13
0 15 21 15 133 0 150 -11 186 -69 224 -59 39 -168 25 -204 -27 -16 -22 -16
-22 -19 11 -2 18 -9 34 -15 37 -10 3 -13 -39 -13 -187z"/>
<path d="M18215 6753 c-45 -23 -65 -44 -87 -87 -27 -53 -21 -159 11 -204 54
-77 165 -99 250 -52 134 75 116 300 -28 349 -47 15 -110 13 -146 -6z m162 -33
c45 -27 63 -60 70 -123 5 -45 1 -64 -17 -102 -54 -112 -216 -112 -270 0 -39
80 -17 178 49 222 44 30 122 31 168 3z"/>
<path d="M19305 6763 c-33 -9 -82 -52 -100 -89 -22 -47 -22 -141 0 -187 59
-125 245 -140 315 -25 24 39 25 48 6 48 -8 0 -23 -16 -35 -35 -64 -109 -261
-70 -265 52 l-1 38 158 0 157 0 0 46 c0 108 -114 182 -235 152z m142 -43 c36
-22 63 -66 63 -105 l0 -25 -145 0 c-139 0 -145 1 -145 20 0 39 29 90 62 110
44 26 122 27 165 0z"/>
<path d="M19785 6758 c-3 -7 -4 -132 -3 -278 3 -228 5 -265 18 -265 12 0 15
22 18 126 l3 126 32 -32 c97 -97 261 -48 298 88 14 52 0 134 -32 178 -28 39
-91 68 -147 69 -49 0 -116 -30 -132 -60 -16 -31 -27 -24 -26 16 1 37 -19 59
-29 32z m272 -38 c50 -30 66 -70 61 -156 -3 -61 -7 -77 -28 -100 -71 -76 -191
-69 -247 15 -31 45 -32 141 -3 189 43 70 147 95 217 52z"/>
<path d="M20410 6762 c0 -10 32 -89 101 -255 l50 -117 -32 -85 c-29 -77 -33
-114 -10 -89 9 9 207 505 213 533 2 7 -2 15 -8 18 -6 2 -38 -67 -74 -159 -34
-90 -66 -166 -70 -171 -3 -4 -30 52 -60 125 -64 160 -87 208 -100 208 -6 0
-10 -4 -10 -8z"/>
<path d="M20893 6751 c-152 -71 -124 -327 40 -360 131 -27 227 52 227 185 0
114 -62 185 -168 191 -41 3 -69 -2 -99 -16z m177 -37 c43 -37 60 -74 60 -134
0 -67 -21 -115 -61 -139 -69 -42 -138 -39 -193 10 -77 67 -64 227 22 274 15 8
53 14 84 15 47 0 62 -5 88 -26z"/>
<path d="M21259 6763 c0 -4 0 -68 1 -142 1 -95 5 -142 15 -162 36 -69 121 -95
199 -60 25 11 49 27 52 35 10 26 24 18 24 -14 0 -20 5 -30 15 -30 13 0 15 25
13 187 -2 125 -7 188 -14 190 -8 3 -13 -40 -16 -135 -6 -150 -11 -168 -65
-203 -53 -35 -146 -17 -175 34 -8 13 -15 75 -18 161 -4 99 -9 141 -17 144 -7
2 -13 0 -14 -5z"/>
<path d="M22662 6763 c-12 -3 -40 -21 -61 -41 -78 -75 -81 -198 -5 -282 86
-95 254 -66 297 53 5 12 1 17 -11 17 -10 0 -22 -12 -29 -29 -14 -38 -53 -62
-109 -69 -83 -9 -157 45 -166 123 l-3 30 164 0 163 0 -5 52 c-12 113 -105 171
-235 146z m146 -43 c33 -20 62 -71 62 -110 0 -20 -4 -20 -147 -18 l-148 3 3
25 c6 42 25 73 61 97 45 30 122 31 169 3z"/>
<path d="M23741 6752 c-19 -9 -48 -34 -65 -55 -42 -52 -49 -144 -16 -212 60
-123 235 -137 313 -25 9 13 17 30 17 37 0 24 -25 13 -38 -16 -15 -34 -82 -71
-128 -71 -16 0 -48 9 -72 20 -34 15 -47 29 -63 65 -33 75 -31 76 138 75 82 -1
154 -1 161 0 20 0 14 63 -11 110 -42 80 -155 114 -236 72z m160 -28 c33 -17
75 -94 65 -120 -8 -22 -296 -21 -296 1 0 31 28 82 59 108 27 22 42 27 87 27
30 0 69 -7 85 -16z"/>
<path d="M24129 6747 c-92 -62 -48 -158 86 -188 65 -14 95 -39 95 -78 0 -39
-31 -63 -87 -68 -57 -5 -93 12 -111 50 -16 34 -47 38 -37 5 12 -40 46 -67 97
-78 93 -19 168 23 168 94 0 53 -23 73 -115 101 -114 35 -144 77 -90 130 19 20
34 25 75 25 42 0 55 -5 75 -26 14 -15 25 -33 25 -40 0 -8 7 -14 15 -14 19 0
19 13 -1 51 -30 59 -133 78 -195 36z"/>
<path d="M24837 6762 c-2 -4 21 -88 53 -187 39 -124 61 -181 72 -183 12 -2 24
20 47 85 65 180 86 233 91 233 3 0 30 -71 61 -158 38 -106 61 -158 72 -160 12
-3 24 23 52 115 20 65 45 145 56 177 22 69 24 89 7 84 -11 -4 -30 -58 -88
-257 -12 -40 -25 -70 -30 -65 -4 5 -31 77 -60 161 -48 140 -70 178 -85 152 -4
-5 -28 -71 -55 -147 -26 -75 -53 -148 -58 -162 -10 -27 -7 -37 -79 212 -25 87
-44 121 -56 100z"/>
<path d="M25525 6756 c-42 -19 -82 -62 -96 -103 -16 -51 -6 -159 18 -192 66
-89 206 -104 278 -30 40 41 54 79 30 79 -8 0 -19 -10 -24 -22 -36 -93 -191
-103 -254 -17 -10 14 -19 41 -20 60 l-2 34 155 0 c85 0 158 4 161 8 14 19 -11
111 -38 140 -52 55 -140 73 -208 43z m181 -59 c25 -27 34 -46 34 -72 l0 -35
-145 0 c-141 0 -145 1 -145 21 0 35 32 90 64 111 24 15 45 18 95 15 58 -3 66
-6 97 -40z"/>
<path d="M26141 6748 c-66 -36 -94 -92 -89 -184 3 -59 8 -77 31 -107 39 -51
81 -71 148 -71 67 1 113 24 146 74 27 38 29 50 9 50 -8 0 -21 -12 -28 -27 -43
-87 -183 -97 -245 -16 -20 26 -28 50 -31 95 -8 112 47 178 147 178 64 0 113
-26 131 -70 12 -29 40 -42 40 -19 0 21 -40 77 -67 94 -14 10 -53 20 -87 22
-51 4 -68 1 -105 -19z"/>
<path d="M26585 6756 c-43 -18 -93 -79 -101 -122 -26 -142 49 -247 176 -247
65 0 121 27 145 71 14 27 14 27 15 -20 0 -36 4 -48 15 -48 13 0 15 28 15 190
0 162 -2 190 -15 190 -11 0 -15 -12 -15 -46 l0 -46 -26 32 c-15 17 -39 37 -55
45 -35 18 -114 19 -154 1z m163 -36 c46 -28 76 -97 70 -162 -11 -114 -117
-176 -222 -130 -37 17 -51 30 -66 64 -39 85 -18 180 49 225 45 30 122 31 169
3z"/>
<path d="M26967 6764 c-4 -4 -7 -90 -7 -191 0 -176 1 -183 20 -183 19 0 20 7
20 134 0 122 2 136 23 167 48 72 160 75 209 6 21 -29 23 -45 26 -169 3 -115 6
-138 19 -138 13 0 14 20 11 138 -4 153 -13 183 -67 219 -57 39 -160 28 -200
-21 -20 -24 -32 -19 -29 10 3 26 -11 41 -25 28z"/>
<path d="M28360 6754 c-78 -34 -114 -97 -108 -190 7 -112 75 -177 184 -177
108 0 184 78 184 190 0 143 -132 233 -260 177z m161 -37 c67 -44 88 -140 50
-224 -22 -47 -79 -83 -132 -83 -47 0 -112 35 -134 72 -24 41 -27 140 -5 183
37 73 150 100 221 52z"/>
<path d="M28717 6763 c-11 -10 -8 -234 3 -275 13 -45 66 -93 114 -102 48 -9
107 8 140 40 l26 27 0 -32 c0 -23 5 -31 18 -31 16 0 17 15 15 187 -1 149 -4
188 -15 188 -10 0 -14 -32 -18 -137 -5 -147 -15 -176 -71 -206 -36 -19 -115
-10 -144 18 -35 33 -45 78 -45 213 0 107 -5 129 -23 110z"/>
<path d="M29270 6581 c0 -163 2 -191 15 -191 13 0 15 21 15 125 0 150 12 188
64 210 20 8 45 15 56 15 11 0 20 7 20 15 0 36 -111 -1 -128 -43 -5 -13 -8 -8
-12 17 -3 19 -11 36 -17 39 -10 3 -13 -39 -13 -187z"/>
<path d="M29594 6752 c-159 -75 -125 -336 48 -366 79 -14 184 40 201 103 9 34
-26 25 -43 -11 -22 -46 -73 -70 -137 -64 -77 7 -126 52 -135 121 l-3 30 163 0
162 0 0 38 c0 52 -25 102 -66 133 -46 35 -133 42 -190 16z m164 -32 c33 -20
62 -71 62 -110 0 -19 -6 -20 -150 -20 l-150 0 6 28 c12 49 29 76 63 99 45 30
122 31 169 3z"/>
<path d="M30147 6763 c-4 -3 -7 -89 -7 -190 0 -156 2 -183 15 -183 13 0 15 28
15 190 0 174 -4 203 -23 183z"/>
<path d="M30290 6581 c0 -163 2 -191 15 -191 13 0 15 21 15 125 0 141 11 180
56 210 41 26 114 26 151 -1 41 -30 52 -74 52 -211 1 -102 4 -123 16 -123 13 0
15 21 15 133 0 150 -11 186 -69 224 -63 42 -186 22 -209 -35 -5 -13 -8 -8 -12
17 -3 19 -11 36 -17 39 -10 3 -13 -39 -13 -187z"/>
<path d="M30680 6761 c0 -8 86 -221 140 -348 5 -13 18 -23 27 -23 14 0 35 42
91 178 74 181 81 207 60 200 -7 -3 -42 -77 -78 -165 -36 -89 -68 -164 -71
-168 -4 -3 -18 25 -32 62 -42 111 -99 247 -110 261 -11 14 -27 16 -27 3z"/>
<path d="M31090 6580 c0 -162 2 -190 15 -190 13 0 15 28 15 190 0 162 -2 190
-15 190 -13 0 -15 -28 -15 -190z"/>
<path d="M31550 6748 c-65 -34 -93 -91 -88 -184 3 -59 8 -77 31 -107 39 -51
78 -69 149 -68 69 0 112 21 145 71 27 38 29 50 9 50 -8 0 -23 -16 -35 -35 -62
-106 -248 -72 -268 48 -5 32 -3 37 19 42 13 3 86 5 161 3 l137 -3 0 46 c0 51
-26 98 -72 132 -43 32 -132 34 -188 5z m190 -46 c32 -32 40 -46 40 -75 l0 -37
-145 0 c-141 0 -145 1 -145 21 0 36 32 90 64 110 21 13 50 19 88 19 53 0 60
-3 98 -38z"/>
<path d="M32893 6751 c-60 -28 -97 -94 -97 -175 0 -117 70 -189 184 -189 96 0
160 52 179 145 34 168 -113 288 -266 219z m189 -50 c40 -36 42 -42 46 -105 3
-40 -1 -78 -8 -96 -40 -96 -180 -118 -255 -40 -50 52 -48 184 3 235 36 36 56
44 120 44 48 1 57 -3 94 -38z"/>
<path d="M33555 6758 c-40 -14 -73 -45 -97 -92 -27 -53 -21 -159 11 -204 44
-62 118 -89 199 -71 109 23 169 146 128 262 -8 21 -22 48 -33 59 -46 51 -136
71 -208 46z m153 -38 c48 -29 76 -98 68 -164 -13 -115 -115 -174 -219 -128
-111 49 -120 228 -15 292 44 27 122 27 166 0z"/>
<path d="M33907 6763 c-4 -3 -7 -63 -7 -132 0 -102 4 -134 19 -168 40 -88 169
-107 243 -37 l28 28 0 -32 c0 -22 5 -32 15 -32 13 0 15 28 15 191 0 148 -3
190 -12 187 -9 -3 -14 -44 -18 -139 -5 -146 -13 -169 -63 -199 -39 -24 -88
-25 -132 -4 -51 24 -65 70 -65 219 0 114 -5 137 -23 118z"/>
<path d="M34340 6581 c0 -163 2 -191 15 -191 13 0 15 21 15 130 0 98 4 139 15
160 17 33 61 60 100 60 16 0 25 5 25 16 0 29 -80 11 -112 -25 l-27 -30 -3 31
c-2 17 -9 33 -15 36 -10 3 -13 -39 -13 -187z"/>
<path d="M35300 6754 c-78 -34 -114 -97 -108 -190 7 -111 76 -178 183 -178
107 0 176 67 183 178 4 69 -15 121 -60 163 -47 44 -131 56 -198 27z m172 -44
c88 -72 72 -236 -26 -281 -51 -23 -84 -24 -136 -3 -56 23 -85 72 -85 149 0
109 53 165 154 165 48 0 62 -5 93 -30z"/>
<path d="M35660 6581 c0 -159 2 -191 14 -191 12 0 15 27 18 139 3 159 13 184
83 210 32 13 43 13 78 0 71 -25 81 -50 85 -210 3 -111 7 -139 18 -139 11 0 14
24 14 125 0 182 27 229 131 229 94 0 119 -50 119 -236 0 -98 3 -118 15 -118
13 0 15 20 15 123 0 147 -10 186 -56 226 -29 26 -43 31 -88 31 -59 0 -113 -28
-131 -68 -11 -24 -25 -29 -25 -9 0 7 -13 26 -30 42 -53 51 -165 45 -210 -12
l-19 -24 -3 32 c-2 18 -9 34 -15 37 -10 3 -13 -39 -13 -187z"/>
<path d="M36450 6759 c-36 -14 -69 -48 -92 -93 -39 -77 -9 -207 57 -250 38
-25 116 -37 161 -24 59 16 113 66 114 106 0 22 -25 12 -38 -15 -18 -41 -56
-64 -115 -69 -70 -7 -114 17 -146 79 -37 75 -33 78 126 77 76 -1 149 -1 162 0
22 0 23 3 19 44 -7 62 -43 115 -92 137 -44 20 -116 24 -156 8z m156 -38 c32
-20 64 -74 64 -110 0 -20 -4 -21 -151 -21 l-151 0 7 33 c10 44 30 74 68 97 42
26 121 26 163 1z"/>
<path d="M36795 6757 c-3 -7 -4 -131 -3 -276 2 -201 6 -265 16 -269 9 -3 12
27 12 127 0 72 2 131 4 131 2 0 19 -15 38 -34 83 -83 229 -60 283 44 32 64 25
164 -16 222 -62 86 -217 89 -284 4 l-25 -31 0 48 c0 44 -14 63 -25 34z m263
-33 c50 -29 67 -63 70 -139 2 -56 -1 -76 -17 -102 -31 -49 -66 -67 -132 -68
-95 0 -152 60 -151 160 1 72 39 139 92 158 32 12 113 6 138 -9z"/>
<path d="M37342 6753 c-93 -45 -127 -163 -78 -268 26 -57 54 -79 119 -95 59
-15 120 1 164 45 l33 33 0 -39 c0 -28 4 -39 15 -39 13 0 15 28 15 191 0 148
-3 190 -12 187 -7 -3 -14 -21 -16 -42 l-3 -37 -27 27 c-54 54 -144 70 -210 37z
m166 -33 c102 -62 96 -237 -10 -291 -72 -37 -150 -16 -202 54 -26 35 -28 138
-3 185 37 69 144 95 215 52z"/>
<path d="M37815 6756 c-43 -18 -93 -79 -101 -122 -10 -56 2 -140 25 -173 71
-99 243 -101 296 -3 13 26 14 23 15 -48 0 -110 -40 -165 -129 -177 -51 -7
-120 25 -144 67 -20 33 -51 43 -40 13 24 -66 85 -104 167 -105 69 -1 115 23
149 74 l27 42 0 223 c0 192 -2 223 -15 223 -11 0 -15 -12 -15 -46 l0 -46 -27
33 c-47 56 -138 76 -208 45z m162 -36 c48 -29 76 -91 71 -157 -10 -118 -115
-182 -220 -135 -107 47 -119 222 -19 289 44 30 122 31 168 3z"/>
<path d="M38270 6748 c-59 -31 -90 -89 -90 -169 0 -90 28 -141 95 -177 42 -21
136 -19 177 5 31 18 78 75 78 94 0 22 -30 5 -49 -26 -63 -108 -261 -69 -265
52 l-1 38 158 0 157 0 0 46 c0 51 -26 98 -72 132 -43 32 -132 34 -188 5z m190
-46 c32 -32 40 -46 40 -75 l0 -37 -145 0 -145 0 0 26 c0 35 35 91 68 109 15 8
53 14 84 15 53 0 60 -3 98 -38z"/>
<path d="M27370 6415 c0 -22 4 -26 23 -23 14 2 22 10 22 23 0 13 -8 21 -22 23
-19 3 -23 -1 -23 -23z"/>
<path d="M38604 6425 c-4 -9 -2 -21 4 -27 15 -15 44 -1 40 19 -4 23 -36 29
-44 8z"/>
</g>
</svg>
